<?xml version="1.0" encoding="UTF-8"?>
<svg version="1.1" xmlns="http://www.w3.org/2000/svg" width="2000" height="1500">
<path d="M0 0 C660 0 1320 0 2000 0 C2000 495 2000 990 2000 1500 C1340 1500 680 1500 0 1500 C0 1005 0 510 0 0 Z " fill="#0044BB" transform="translate(0,0)"/>
<path d="M0 0 C0.82634536 -0.00644889 1.65269071 -0.01289778 2.50407684 -0.0195421 C3.85785641 -0.01489629 3.85785641 -0.01489629 5.23898506 -0.01015663 C6.20188772 -0.01468774 7.16479038 -0.01921886 8.15687191 -0.02388728 C11.39190247 -0.0365742 14.62676559 -0.03490813 17.86181831 -0.03325844 C20.17776901 -0.03924098 22.49371771 -0.04604589 24.80966377 -0.05361366 C31.10716022 -0.07130823 37.40460235 -0.07597049 43.70212126 -0.07724524 C48.9557462 -0.07914246 54.20935843 -0.08649793 59.46297848 -0.09358943 C71.14752171 -0.10895281 82.83203842 -0.11492616 94.51659094 -0.11357872 C95.56823044 -0.11345885 95.56823044 -0.11345885 96.64111519 -0.11333656 C97.34306441 -0.1132548 98.04501362 -0.11317304 98.76823403 -0.1130888 C110.14506979 -0.11227585 121.52177317 -0.13141579 132.89857064 -0.1596133 C144.58080598 -0.18833932 156.26297067 -0.20178745 167.94524205 -0.20042574 C174.50372561 -0.19991526 181.06205938 -0.20564645 187.62051201 -0.22678185 C193.78798771 -0.24611409 199.95516995 -0.24632287 206.12265587 -0.23174858 C208.38739893 -0.2296532 210.65216013 -0.23440456 212.91687202 -0.2464695 C216.00652388 -0.26186426 219.09515655 -0.25265146 222.18478584 -0.23720741 C223.53187325 -0.2526381 223.53187325 -0.2526381 224.90617454 -0.26838052 C230.36200204 -0.2080356 233.53746154 0.57852439 237.83886909 4.25726891 C240.29804496 7.9460327 240.65478847 10.9757118 239.83886909 15.25726891 C238.09436403 18.2793483 236.00584745 20.67377973 232.83886909 22.25726891 C234.47181354 27.86994207 237.04437558 32.84812582 239.71386909 38.01898766 C240.1978315 38.96425819 240.6817939 39.90952873 241.18042183 40.88344383 C242.72928858 43.90593007 244.2841023 46.92531422 245.83886909 49.94476891 C246.85355733 51.92439941 247.86788355 53.90421551 248.88183784 55.88422203 C259.40807672 77.00190832 259.40807672 77.00190832 271.00293159 97.53070641 C277.67448882 108.4682728 280.58788501 119.42899599 277.83886909 132.25726891 C275.8272079 137.26874473 273.31693319 140.43034277 268.40136909 142.60883141 C262.96569852 143.98432121 254.9721547 144.82391171 249.83886909 142.25726891 C249.83886909 181.19726891 249.83886909 220.13726891 249.83886909 260.25726891 C160.07886909 260.25726891 70.31886909 260.25726891 -22.16113091 260.25726891 C-22.16113091 221.31726891 -22.16113091 182.37726891 -22.16113091 142.25726891 C-23.15113091 142.58726891 -24.14113091 142.91726891 -25.16113091 143.25726891 C-32.6450611 143.92292979 -39.23311728 144.26385908 -45.61034966 139.93695641 C-50.63900666 134.4903002 -51.35381562 127.96059968 -51.54687309 120.88568687 C-50.8864213 106.2114265 -41.4510929 92.7944321 -34.43017387 80.31586266 C-31.48240758 75.07090743 -28.72402481 69.73267476 -25.97363091 64.38226891 C-25.04925454 62.60940027 -24.12345338 60.83727386 -23.19628716 59.06586266 C-22.72207329 58.15820152 -22.24785942 57.25054039 -21.75927544 56.31537437 C-20.91047055 54.69115653 -20.06158532 53.06698056 -19.21209526 51.44312096 C-17.11918814 47.44215684 -15.03055736 43.43900555 -12.94686699 39.43323326 C-12.26054995 38.11560322 -11.57276209 36.79873817 -10.88345146 35.48267174 C-9.92534548 33.65297311 -8.97235113 31.82069915 -8.02050591 29.98773766 C-7.19244438 28.40061974 -7.19244438 28.40061974 -6.34765434 26.78143883 C-5.01932785 24.42045763 -5.01932785 24.42045763 -5.16113091 22.25726891 C-7.14373516 20.56994613 -9.14436511 18.90360833 -11.16113091 17.25726891 C-12.76420014 14.05113043 -12.64853552 10.73586893 -12.16113091 7.25726891 C-9.14761073 2.30648575 -5.79511717 0.01146466 0 0 Z " fill="#FDFDFE" transform="translate(886.1611309051514,466.74273109436035)"/>
<path d="M0 0 C9.10471048 5.48457815 15.24173204 13.86696276 18.7265625 23.81640625 C19.17322266 24.97462891 19.17322266 24.97462891 19.62890625 26.15625 C24.66411447 41.21546721 22.57235594 59.05345509 15.9140625 73.19140625 C9.97919275 84.24655579 1.31680002 91.05929825 -10.2734375 95.81640625 C-16.43519893 97.64057285 -22.37605703 98.12902335 -28.7734375 98.06640625 C-29.95873047 98.07800781 -29.95873047 98.07800781 -31.16796875 98.08984375 C-31.95558594 98.08726563 -32.74320313 98.0846875 -33.5546875 98.08203125 C-34.24626953 98.07977539 -34.93785156 98.07751953 -35.65039062 98.07519531 C-39.57815303 97.68768339 -43.42059116 96.67259433 -47.2734375 95.81640625 C-46.9434375 106.37640625 -46.6134375 116.93640625 -46.2734375 127.81640625 C-40.90542294 129.3501247 -36.68125549 130.24716225 -31.2734375 130.81640625 C-31.2734375 133.45640625 -31.2734375 136.09640625 -31.2734375 138.81640625 C-47.1134375 138.81640625 -62.9534375 138.81640625 -79.2734375 138.81640625 C-79.2734375 136.17640625 -79.2734375 133.53640625 -79.2734375 130.81640625 C-73.3334375 129.82640625 -73.3334375 129.82640625 -67.2734375 128.81640625 C-66.9434375 90.53640625 -66.6134375 52.25640625 -66.2734375 12.81640625 C-70.8934375 12.81640625 -75.5134375 12.81640625 -80.2734375 12.81640625 C-80.2734375 10.50640625 -80.2734375 8.19640625 -80.2734375 5.81640625 C-76.84487848 4.62228592 -73.40449678 3.46647956 -69.9609375 2.31640625 C-68.52524414 1.81560547 -68.52524414 1.81560547 -67.06054688 1.3046875 C-60.29603962 -0.92737213 -54.38167943 -1.62193389 -47.2734375 -1.18359375 C-47.2734375 1.78640625 -47.2734375 4.75640625 -47.2734375 7.81640625 C-46.63019531 7.36910156 -45.98695312 6.92179687 -45.32421875 6.4609375 C-30.8471959 -3.224831 -16.25398599 -8.46212673 0 0 Z " fill="#FAFBFD" transform="translate(1125.2734375,1111.18359375)"/>
<path d="M0 0 C0.70326416 0.00676758 1.40652832 0.01353516 2.13110352 0.02050781 C15.47635578 0.28547184 26.19481501 4.90785839 35.96875 13.95703125 C45.1293114 23.4992827 49.54958871 36.57262844 49.375 49.625 C49.36376099 50.74297974 49.36376099 50.74297974 49.35229492 51.88354492 C49.08083087 65.83133738 44.94217178 78.9991379 35.125 89.25 C23.65982601 99.83323753 10.82420216 102.91588915 -4.39453125 102.5546875 C-16.68957458 101.92920916 -26.83416195 95.87406561 -35.1875 87 C-45.19863507 74.24014287 -48.72318657 58.15291824 -46.875 42.25 C-45.10133225 32.44721959 -41.40480424 23.84533715 -34.875 16.25 C-34.27945313 15.53328125 -33.68390625 14.8165625 -33.0703125 14.078125 C-24.63020624 4.76248904 -12.48989485 -0.17445247 0 0 Z " fill="#FAFBFD" transform="translate(882.875,1106.75)"/>
<path d="M0 0 C10.20442607 7.40065405 17.08454166 17.53940794 19.8828125 29.8984375 C20.13283646 31.84977389 20.30971398 33.81082732 20.4453125 35.7734375 C20.4983252 36.48773926 20.55133789 37.20204102 20.60595703 37.93798828 C21.59110595 53.12904634 19.63160608 66.97633787 9.29296875 78.8828125 C3.85077612 84.45156775 -1.32965947 88.76648942 -8.5546875 91.7734375 C-9.17214844 92.0725 -9.78960938 92.3715625 -10.42578125 92.6796875 C-20.29391358 96.83469059 -34.07572133 96.08398409 -44.09765625 92.8203125 C-48.55833831 90.91973573 -52.56522074 88.51531483 -56.5546875 85.7734375 C-58.1325 84.690625 -58.1325 84.690625 -59.7421875 83.5859375 C-71.7282065 71.5999185 -74.85805676 56.86082454 -74.86938477 40.62402344 C-74.68294732 26.54303182 -69.86263787 15.20013504 -60.1171875 4.8984375 C-53.66661529 -1.09342735 -47.04181704 -4.09034622 -38.5546875 -6.2265625 C-37.96429687 -6.4121875 -37.37390625 -6.5978125 -36.765625 -6.7890625 C-23.84491498 -9.34581077 -11.0107334 -7.07586316 0 0 Z " fill="#FBFCFD" transform="translate(1499.5546875,1114.2265625)"/>
<path d="M0 0 C0.33 19.8 0.66 39.6 1 60 C7.27 57.03 13.54 54.06 20 51 C29.09351784 48.40185204 37.32246975 47.26241186 45.96875 51.7421875 C52.96459989 56.07423301 57.56623662 61.05189928 59.53356934 69.21356201 C60.06412315 72.38306914 60.15469209 75.39629754 60.18945312 78.61035156 C60.20617065 79.92811584 60.22288818 81.24588013 60.2401123 82.60357666 C60.24679428 83.30233162 60.25347626 84.00108658 60.26036072 84.72101593 C60.28147977 86.914489 60.30848983 89.1078203 60.33703613 91.3012085 C60.40667605 96.74329516 60.46640956 102.18548176 60.52606201 107.62768555 C60.57691708 112.23712217 60.6316848 116.84647848 60.69187927 121.45580292 C60.71851168 123.62124779 60.7392828 125.78670005 60.7598877 127.95220947 C60.77660522 129.25736511 60.79332275 130.56252075 60.81054688 131.90722656 C60.82307495 133.06240784 60.83560303 134.21758911 60.84851074 135.40777588 C60.70773318 137.92928303 60.70773318 137.92928303 62 139 C63.84891946 139.23363881 65.70488031 139.41303635 67.5625 139.5625 C68.57441406 139.64628906 69.58632813 139.73007813 70.62890625 139.81640625 C71.41136719 139.87699219 72.19382812 139.93757813 73 140 C73 142.64 73 145.28 73 148 C58.48 148 43.96 148 29 148 C29 145.36 29 142.72 29 140 C29.71027344 139.93941406 30.42054688 139.87882812 31.15234375 139.81640625 C32.07144531 139.73261719 32.99054688 139.64882812 33.9375 139.5625 C35.31228516 139.44068359 35.31228516 139.44068359 36.71484375 139.31640625 C38.96159732 139.23955024 38.96159732 139.23955024 40 138 C40.10969445 136.09916586 40.14910787 134.19424189 40.16113281 132.2902832 C40.17074036 131.06843826 40.1803479 129.84659332 40.19024658 128.58772278 C40.19509584 127.24207749 40.19937436 125.89643005 40.203125 124.55078125 C40.20887612 123.1765289 40.21463386 121.80227658 40.22039795 120.42802429 C40.23092063 117.54030991 40.23675406 114.65262345 40.24023438 111.76489258 C40.24570268 108.0738872 40.26968907 104.38325381 40.29820633 100.69236469 C40.31688695 97.85010221 40.32204131 95.00792803 40.32357025 92.16560936 C40.3265883 90.80570646 40.33458814 89.4458048 40.34775543 88.0859623 C40.36491705 86.1762796 40.36107632 84.26644365 40.35644531 82.35668945 C40.36009094 81.27160599 40.36373657 80.18652252 40.36749268 79.06855774 C39.79099759 74.25483333 38.06035803 71.00598069 34.5625 67.6875 C28.29515594 63.56022465 20.22084428 64.44621015 13 65 C9.87938074 65.83095559 7.03655322 66.84973494 4.07421875 68.125 C2 69 2 69 0 69 C0.33 92.1 0.66 115.2 1 139 C4.63 139.66 8.26 140.32 12 141 C12 143.64 12 146.28 12 149 C-2.85 149 -17.7 149 -33 149 C-33 146.03 -33 143.06 -33 140 C-32.14535156 139.93941406 -31.29070312 139.87882812 -30.41015625 139.81640625 C-29.30542969 139.73261719 -28.20070313 139.64882812 -27.0625 139.5625 C-25.96035156 139.48128906 -24.85820312 139.40007812 -23.72265625 139.31640625 C-21.08890097 139.29581916 -21.08890097 139.29581916 -20 138 C-19.89187487 136.40618922 -19.85315703 134.80762353 -19.84178162 133.21018982 C-19.8319928 132.17387421 -19.82220398 131.13755859 -19.81211853 130.06983948 C-19.80636307 128.92329391 -19.8006076 127.77674835 -19.79467773 126.59545898 C-19.77982834 124.79570618 -19.77982834 124.79570618 -19.76467896 122.95959473 C-19.73842867 119.66017762 -19.71659258 116.36078552 -19.69667697 113.0613277 C-19.67485486 109.6166283 -19.64744777 106.17197358 -19.62062073 102.72731018 C-19.57064262 96.20020511 -19.52572286 89.67307532 -19.48259836 83.14592177 C-19.43326962 75.71674811 -19.37833537 68.28761927 -19.32291877 60.85848892 C-19.2090202 45.57236706 -19.10239725 30.28620346 -19 15 C-23.95 15 -28.9 15 -34 15 C-34 12.69 -34 10.38 -34 8 C-31.98827746 7.32942582 -29.97581549 6.66103253 -27.9609375 6 C-25.76818746 5.25944062 -23.58748372 4.48300058 -21.4140625 3.6875 C-20.13021932 3.22913589 -18.84636513 2.77080262 -17.5625 2.3125 C-16.36753906 1.87550781 -15.17257812 1.43851563 -13.94140625 0.98828125 C-10 0 -10 0 0 0 Z " fill="#F8FAFD" transform="translate(457,1058)"/>
<path d="M0 0 C6.17100358 4.85717701 8.59484163 9.85615707 10.546875 17.40625 C11.11729583 22.65276852 11.15317802 27.86733279 11.15625 33.13671875 C11.17126404 34.62317171 11.18799784 36.10960819 11.20635986 37.59602356 C11.24968488 41.47076263 11.26995404 45.34527686 11.28509521 49.22021484 C11.30479347 53.18926094 11.34674823 57.15806858 11.38671875 61.12695312 C11.46164223 68.88665408 11.51216131 76.64625377 11.546875 84.40625 C15.87627446 85.67263795 20.08051788 86.75263676 24.546875 87.40625 C24.546875 90.04625 24.546875 92.68625 24.546875 95.40625 C14.646875 95.40625 4.746875 95.40625 -5.453125 95.40625 C-7.703125 87.53125 -7.703125 87.53125 -7.453125 83.40625 C-8.25234375 83.92574219 -9.0515625 84.44523437 -9.875 84.98046875 C-22.01822596 92.69113219 -33.6803633 98.8700658 -48.453125 97.40625 C-56.97519123 94.81712089 -61.80518553 89.7312178 -66.328125 82.34375 C-68.85454759 75.69685246 -68.48469206 66.79573207 -66.515625 60.03125 C-62.09284454 50.49271887 -51.70250545 45.95825496 -42.453125 42.40625 C-31.33638195 38.44258798 -19.99788318 35.79804596 -8.453125 33.40625 C-8.51363649 30.71651414 -8.60084397 28.03196222 -8.703125 25.34375 C-8.71730469 24.59158203 -8.73148438 23.83941406 -8.74609375 23.06445312 C-8.98912089 17.45052618 -10.23003715 14.03427359 -13.453125 9.40625 C-19.74453281 5.16638822 -27.11015453 5.95490903 -34.453125 6.40625 C-36.103125 6.73625 -37.753125 7.06625 -39.453125 7.40625 C-39.783125 13.34625 -40.113125 19.28625 -40.453125 25.40625 C-43.340625 25.4475 -46.228125 25.48875 -49.203125 25.53125 C-50.55809082 25.55856201 -50.55809082 25.55856201 -51.94042969 25.58642578 C-52.66133789 25.5914209 -53.38224609 25.59641602 -54.125 25.6015625 C-54.8581543 25.61203613 -55.59130859 25.62250977 -56.34667969 25.63330078 C-58.75208576 25.37402544 -60.36563994 24.59850925 -62.453125 23.40625 C-63.06711988 13.82110776 -63.06711988 13.82110776 -61.015625 9.09375 C-47.50008903 -5.08108041 -17.08612429 -11.10053935 0 0 Z " fill="#F7F9FD" transform="translate(1013.453125,1111.59375)"/>
<path d="M0 0 C3.3 0.99 6.6 1.98 10 3 C10 13.56 10 24.12 10 35 C6.04 35 2.08 35 -2 35 C-2.18433594 33.54207031 -2.36867188 32.08414062 -2.55859375 30.58203125 C-2.84946382 28.65853563 -3.14254959 26.73537416 -3.4375 24.8125 C-3.55287109 23.85279297 -3.66824219 22.89308594 -3.78710938 21.90429688 C-4.64631088 16.414508 -4.64631088 16.414508 -8.06298828 12.24365234 C-16.51169446 7.48601213 -25.38677033 6.60070477 -34.8984375 8.61328125 C-41.2400071 10.82795248 -45.28989193 14.44024622 -49 20 C-51.78642458 25.81514694 -51.83191567 31.95217483 -50 38.0625 C-45.01758115 49.62802429 -30.16784559 54.38280724 -19.34765625 59.00390625 C-6.21976297 64.61212471 7.62325597 70.95877836 13.38916016 84.97729492 C14.52393125 88.73492024 14.4854759 92.47695826 14.4375 96.375 C14.43137695 97.21699951 14.42525391 98.05899902 14.41894531 98.92651367 C14.2647416 105.03594634 13.42122165 109.82673405 10 115 C9.401875 116.03125 8.80375 117.0625 8.1875 118.125 C-0.25499096 129.22084526 -11.58802922 135.08986895 -25.23046875 137.5703125 C-41.23378471 139.39452468 -61.19183816 139.20544123 -75 130 C-75.2667616 127.23371085 -75.34804189 124.69380369 -75.29296875 121.9296875 C-75.28872391 121.13345978 -75.28447906 120.33723206 -75.28010559 119.51687622 C-75.26328834 116.96924271 -75.22563179 114.42239511 -75.1875 111.875 C-75.17245705 110.14975099 -75.15876796 108.42448961 -75.14648438 106.69921875 C-75.11337501 102.46584218 -75.06157285 98.23305441 -75 94 C-70.71 94 -66.42 94 -62 94 C-60.76541927 97.70374219 -60.42227555 101.39013753 -60 105.25 C-59.41200539 110.51438924 -58.77633625 115.75973031 -58 121 C-57.113125 121.28875 -56.22625 121.5775 -55.3125 121.875 C-52 123 -52 123 -49.9296875 124.046875 C-41.32300571 126.84691547 -28.44221971 126.47673106 -20 123.3125 C-13.46638959 119.97594094 -9.31124024 114.92129468 -7 108 C-6.07866841 102.05229276 -6.98203953 97.25709243 -10 92 C-15.30445505 85.21389933 -22.34708219 81.86092516 -29.9375 78.125 C-31.75810935 77.20663601 -33.5757984 76.2826524 -35.39352417 75.3585968 C-37.17271934 74.45486645 -38.95426395 73.55576629 -40.73583984 72.65673828 C-62.03789024 61.84479258 -62.03789024 61.84479258 -67 55 C-67.50015625 54.34386719 -68.0003125 53.68773437 -68.515625 53.01171875 C-73.55896017 44.98949056 -73.06168706 35.12753006 -72 26 C-71.1745599 22.52300652 -69.99802954 19.94380528 -68 17 C-67.59910156 16.33226562 -67.19820312 15.66453125 -66.78515625 14.9765625 C-60.02205468 4.74369578 -49.31027415 -0.6283639 -37.73046875 -3.578125 C-24.75177209 -5.58341719 -12.42962898 -3.81175289 0 0 Z " fill="#F9FAFD" transform="translate(807,1072)"/>
<path d="M0 0 C0 10.23 0 20.46 0 31 C-3.63 31 -7.26 31 -11 31 C-11.14953125 29.62585937 -11.2990625 28.25171875 -11.453125 26.8359375 C-12.57994858 16.82425556 -12.57994858 16.82425556 -17.41015625 8.3359375 C-25.00372789 4.1865565 -33.55751578 3.77672018 -42 5 C-48.8727791 7.06455024 -54.17204006 10.89595577 -58 17 C-60.50846977 22.30337381 -60.7859593 27.222794 -60 33 C-56.70272041 41.39178882 -49.5894507 46.04752004 -41.75 49.8125 C-41.06397705 50.15087891 -40.3779541 50.48925781 -39.67114258 50.83789062 C-35.17130074 53.03179797 -30.61019181 55.04373353 -26.00585938 57.00683594 C-13.57846585 62.33061825 -1.015733 68.87276384 4.38476562 82.02172852 C5.482562 85.55166662 5.53106561 89.01389382 5.5 92.6875 C5.49427979 93.47624512 5.48855957 94.26499023 5.48266602 95.07763672 C5.18206013 105.00674029 1.77687109 113.06530981 -5.1171875 120.2578125 C-17.52592503 131.73975635 -31.29479863 135.64962814 -48.09375 135.15234375 C-49.3828125 135.10207031 -50.671875 135.05179688 -52 135 C-53.1034375 134.98066406 -54.206875 134.96132812 -55.34375 134.94140625 C-64.87654281 134.55207189 -75.95085177 132.36609882 -84 127 C-84.26686213 124.30459685 -84.34818073 121.84152536 -84.29296875 119.1484375 C-84.28872391 118.37440582 -84.28447906 117.60037415 -84.28010559 116.80288696 C-84.26328998 114.32657323 -84.22563395 111.85106842 -84.1875 109.375 C-84.17245682 107.69792841 -84.15876778 106.02084408 -84.14648438 104.34375 C-84.11337721 100.22885419 -84.06157637 96.11456431 -84 92 C-79.71 92 -75.42 92 -71 92 C-70.74605469 93.69769531 -70.49210937 95.39539062 -70.23046875 97.14453125 C-69.88345608 99.36728807 -69.53576455 101.58993898 -69.1875 103.8125 C-69.02185547 104.93205078 -68.85621094 106.05160156 -68.68554688 107.20507812 C-68.51474609 108.27822266 -68.34394531 109.35136719 -68.16796875 110.45703125 C-68.01610107 111.44678955 -67.8642334 112.43654785 -67.70776367 113.45629883 C-66.93065578 116.24922297 -66.2792856 117.2612471 -64 119 C-57.77790001 121.91875551 -52.44917131 122.51432109 -45.625 122.4375 C-44.2328125 122.42722778 -44.2328125 122.42722778 -42.8125 122.41674805 C-34.59857299 122.22369184 -28.6577775 120.86260848 -22.125 115.75 C-17.59231544 109.88417292 -15.25574174 104.92952823 -15.625 97.3828125 C-16.81441736 89.82505637 -22.20978396 85.40766395 -28 81 C-31.58962524 78.81567922 -35.30108373 76.93181558 -39.0625 75.0625 C-41.10940423 74.01568214 -43.1562792 72.9688071 -45.203125 71.921875 C-47.92036402 70.54822847 -50.6397127 69.17939987 -53.36523438 67.82226562 C-64.58347866 62.22865258 -76.29569412 55.88612342 -80.57421875 43.3125 C-82.4225031 33.27411161 -82.11613434 21.71054628 -76.7109375 12.8984375 C-69.50203605 2.60551405 -59.30688487 -3.50314457 -47.1640625 -6.49609375 C-30.71641503 -9.1155339 -15.45116061 -5.61860386 0 0 Z " fill="#FAFBFD" transform="translate(1336,1075)"/>
<path d="M0 0 C9.24680758 7.31142925 13.61966796 15.66568711 16.375 26.9375 C16.86905989 31.97691086 16.6875 37.06142844 16.6875 42.125 C-4.7625 42.125 -26.2125 42.125 -48.3125 42.125 C-46.45830036 62.14428136 -46.45830036 62.14428136 -35.3125 78.125 C-26.34278511 83.56937528 -17.80916816 85.78426255 -7.3828125 83.4765625 C-0.41088481 81.3128608 5.76067769 78.11680746 12.0703125 74.515625 C14.6875 73.125 14.6875 73.125 16.6875 73.125 C16.6875 77.085 16.6875 81.045 16.6875 85.125 C-0.78943141 94.15296089 -17.79356167 101.41859909 -37.79296875 95.09375 C-49.72574814 90.50564258 -58.72545341 82.67635355 -64.3125 71.125 C-70.10074061 57.43751338 -70.5122071 39.03666919 -65.3125 25.125 C-59.84159296 12.63224343 -51.62037766 3.2384723 -38.81640625 -1.87109375 C-36.65969501 -2.61124588 -34.5131777 -3.2798751 -32.3125 -3.875 C-31.714375 -4.05933594 -31.11625 -4.24367188 -30.5 -4.43359375 C-20.12045266 -6.52803812 -9.18628035 -5.19978133 0 0 Z " fill="#FBFCFD" transform="translate(610.3125,1111.875)"/>
<path d="M0 0 C8.36627036 6.87006702 13.56539183 16.47221105 15.18359375 27.15234375 C15.18359375 31.77234375 15.18359375 36.39234375 15.18359375 41.15234375 C-6.59640625 41.15234375 -28.37640625 41.15234375 -50.81640625 41.15234375 C-47.95016652 61.65517019 -47.95016652 61.65517019 -36.07421875 77.609375 C-27.70189547 83.33094541 -19.26937083 84.37278151 -9.359375 82.75 C-1.27300715 80.69823502 5.95174122 76.18410153 13.18359375 72.15234375 C13.84359375 71.82234375 14.50359375 71.49234375 15.18359375 71.15234375 C15.18359375 75.44234375 15.18359375 79.73234375 15.18359375 84.15234375 C12.14393568 85.6149911 9.10201734 87.07256942 6.05859375 88.52734375 C5.20265625 88.93984375 4.34671875 89.35234375 3.46484375 89.77734375 C-3.54332568 93.11970148 -10.00181312 95.6175971 -17.81640625 96.15234375 C-19.47736328 96.26835938 -19.47736328 96.26835938 -21.171875 96.38671875 C-33.4778949 96.84580343 -44.38707103 94.19527673 -53.859375 86.0234375 C-54.50519531 85.40597656 -55.15101562 84.78851562 -55.81640625 84.15234375 C-56.76966797 83.24162109 -56.76966797 83.24162109 -57.7421875 82.3125 C-69.14972853 70.36755875 -70.43692919 55.01533333 -70.125 39.296875 C-69.5381274 25.94491446 -63.54059568 13.82042297 -53.75390625 4.7109375 C-38.84254674 -7.2842892 -16.6718044 -10.93725864 0 0 Z " fill="#FAFBFD" transform="translate(1682.81640625,1112.84765625)"/>
<path d="M0 0 C37.62 0 75.24 0 114 0 C114 10.56 114 21.12 114 32 C110.37 32 106.74 32 103 32 C101.01847452 24.97459149 99.44014833 18.20074167 98 11 C87.77 10.67 77.54 10.34 67 10 C67.08536602 24.6989182 67.17891334 39.39772191 67.28752708 54.09648705 C67.33769162 60.92107263 67.38413397 67.74564597 67.421875 74.5703125 C67.45828002 81.15151315 67.50497668 87.73258798 67.55806351 94.31367874 C67.57665389 96.82956262 67.59174449 99.34547478 67.60334396 101.8614006 C67.6201271 105.37437294 67.6491427 108.88704051 67.68115234 112.39990234 C67.68331253 113.44934525 67.68547272 114.49878815 67.68769836 115.58003235 C67.69886185 116.53358109 67.71002533 117.48712982 67.7215271 118.46957397 C67.72705786 119.30103125 67.73258862 120.13248852 67.73828697 120.98914146 C67.82185949 123.22848134 67.82185949 123.22848134 70 125 C72.55867474 125.4657363 75.04687908 125.83484248 77.625 126.125 C78.68460938 126.25455078 78.68460938 126.25455078 79.765625 126.38671875 C81.50950141 126.59881183 83.2546484 126.80040991 85 127 C85 129.97 85 132.94 85 136 C66.85 136 48.7 136 30 136 C30 133.03 30 130.06 30 127 C31.07121094 126.86722656 32.14242187 126.73445313 33.24609375 126.59765625 C34.64325769 126.4194944 36.04039159 126.24109681 37.4375 126.0625 C38.14455078 125.97548828 38.85160156 125.88847656 39.58007812 125.79882812 C43.08817968 125.61783809 43.08817968 125.61783809 46 124 C46.10779855 122.52027192 46.14681856 121.03547028 46.15821838 119.55186462 C46.1680072 118.5912764 46.17779602 117.63068817 46.18788147 116.64099121 C46.19363693 115.57860229 46.1993924 114.51621338 46.20532227 113.42163086 C46.21522186 112.30957779 46.22512146 111.19752472 46.23532104 110.05177307 C46.26704523 106.35615202 46.29173647 102.66051809 46.31640625 98.96484375 C46.33696636 96.41036128 46.35796256 93.85588229 46.37937927 91.30140686 C46.42903567 85.25241509 46.47427559 79.2034057 46.51740164 73.15436512 C46.56673247 66.26931425 46.62166595 59.38431169 46.67708123 52.49930751 C46.79097605 38.33291495 46.89705895 24.16647617 47 10 C37.1 10.33 27.2 10.66 17 11 C14.92912057 15.14175887 14.40141265 18.61496222 13.9375 23.125 C13.11993243 30.76013514 13.11993243 30.76013514 12 33 C8.04 33 4.08 33 0 33 C0 22.11 0 11.22 0 0 Z " fill="#F7F9FC" transform="translate(302,1071)"/>
<path d="M0 0 C9.24 0 18.48 0 28 0 C25.7531221 10.11095056 25.7531221 10.11095056 24.23046875 14.93359375 C23.90167725 15.98522705 23.57288574 17.03686035 23.23413086 18.12036133 C22.88874268 19.21501709 22.54335449 20.30967285 22.1875 21.4375 C19.8156503 29.03327545 17.49775972 36.62614644 15.4375 44.3125 C13.66374131 50.89359957 11.61098274 57.35276038 9.4375 63.8125 C9.13755127 64.71282959 8.83760254 65.61315918 8.52856445 66.54077148 C7.30790672 70.18993469 6.07080676 73.81437148 4.69921875 77.41015625 C1.76546616 85.50731341 1.49547525 93.32674565 1.50244141 101.86865234 C1.42897074 108.13495473 0.75755579 111.91150317 -3 117 C-7.95839481 121.59025413 -14.57772715 121.6021629 -21.00390625 121.38671875 C-26.34722039 120.69703414 -28.86669901 118.28644978 -32.3125 114.375 C-37.25298924 107.42171885 -36.13822563 97.1360038 -35 89 C-32.60328282 79.58567333 -28.582954 70.6767736 -24.8125 61.75 C-23.7989623 59.27612031 -22.78848255 56.80124148 -21.78271484 54.32421875 C-19.79850989 49.4486683 -17.79426206 44.58180963 -15.77490234 39.72070312 C-12.10247249 30.86120329 -8.61062986 21.93413297 -5.125 13 C-3.43375 8.71 -1.7425 4.42 0 0 Z " fill="#0246BB" transform="translate(908,489)"/>
<path d="M0 0 C9.24 0 18.48 0 28 0 C30.15595703 5.48947266 30.15595703 5.48947266 32.35546875 11.08984375 C32.84663177 12.33940353 33.3377948 13.58896332 33.84384155 14.87638855 C36.05458399 20.50094629 38.26274682 26.12645605 40.45998001 31.75630665 C41.71777804 34.97880308 42.97749639 38.20054607 44.23828125 41.421875 C44.61262802 42.37845536 44.61262802 42.37845536 44.99453735 43.35436058 C48.01261488 51.05698945 51.10178561 58.72167707 54.35546875 66.328125 C66.89857294 95.84183537 66.89857294 95.84183537 63 110 C60.06287088 115.2483127 56.80939485 119.06353505 51 121 C43.77189021 121.69215826 37.74400869 121.79403201 31.5859375 117.6796875 C26.34971688 112.1339366 26.6513903 106.29084718 26.625 99.125 C26.39517616 89.66205912 25.06497382 81.77903134 21.73242188 72.95996094 C20.41785453 69.44217873 19.24922466 65.87499936 18.0625 62.3125 C17.68279053 61.18618164 17.68279053 61.18618164 17.29541016 60.03710938 C15.15217426 53.62231351 13.29106699 47.1442467 11.47436523 40.63061523 C9.93866101 35.16861556 8.3162695 29.73876745 6.62109375 24.32421875 C6.41524155 23.66634872 6.20938934 23.0084787 5.99729919 22.33067322 C4.97016316 19.05441546 3.93613182 15.78046429 2.89526367 12.50854492 C2.33222534 10.72154175 2.33222534 10.72154175 1.7578125 8.8984375 C1.24951904 7.30008057 1.24951904 7.30008057 0.73095703 5.66943359 C0 3 0 3 0 0 Z " fill="#0246BB" transform="translate(1064,489)"/>
<path d="M0 0 C9.57 0 19.14 0 29 0 C27.87666586 15.72667797 27.87666586 15.72667797 27.3515625 21.78613281 C27.23355229 23.15635096 27.11555139 24.52656991 26.99755859 25.89678955 C26.93687195 26.59732704 26.8761853 27.29786453 26.81365967 28.01963043 C26.4814671 31.86433484 26.15537461 35.70955978 25.828125 39.5546875 C25.41666876 44.38537724 25.00357625 49.21590786 24.58398438 54.04589844 C24.24183599 57.98761884 23.90471033 61.92973604 23.572052 65.87226868 C23.44094744 67.42305676 23.30868885 68.97374772 23.17526245 70.52433777 C22.51014996 78.30069285 21.94141823 86.04035056 21.80078125 93.84570312 C21.76621826 95.63678497 21.76621826 95.63678497 21.73095703 97.46405029 C21.70302747 99.64620395 21.70056812 101.82891319 21.72998047 104.01104736 C21.66688725 109.97924022 20.85310014 113.31138708 16.67285156 117.67120361 C11.76955312 121.56604126 6.15926141 122.67191943 0 122 C-5.1650657 120.21894286 -10.20535314 118.00308464 -13.10693359 113.14770508 C-20.70683239 94.87096649 -10.99730858 65.47388228 -7.6222229 47.02740479 C-5.74589558 36.73178749 -4.10425005 26.4034463 -2.5 16.0625 C-2.24285587 14.41631301 -1.98553752 12.77015321 -1.72802734 11.12402344 C-1.14828952 7.41657741 -0.57419218 3.70832449 0 0 Z " fill="#0346BB" transform="translate(960,489)"/>
<path d="M0 0 C9.24 0 18.48 0 28 0 C28.31751221 1.93536621 28.63502441 3.87073242 28.9621582 5.86474609 C30.0236614 12.33470365 31.08537667 18.80462637 32.14722919 25.2745266 C32.9154062 29.95510865 33.68341632 34.63571803 34.45122528 39.31636047 C34.82370168 41.58650729 35.19645587 43.85660839 35.56921387 46.12670898 C36.05556336 49.08920885 36.54036472 52.05195627 37.02404785 55.01489258 C37.98949269 60.92040932 38.95640773 66.82453488 40.01171875 72.71484375 C41.53777251 81.26085281 42.47456802 89.54332974 42.375 98.25 C42.38660156 99.31089844 42.39820313 100.37179687 42.41015625 101.46484375 C42.38591105 107.90598497 42.00949388 112.74034668 37.44921875 117.6796875 C31.09714804 121.98951818 24.45795238 121.97749861 17 121 C13.375 119.3125 13.375 119.3125 11 117 C10.30253662 116.36247803 9.60507324 115.72495605 8.88647461 115.06811523 C6.01581645 110.39934844 6.45362854 105.97938793 6.44140625 100.59765625 C6.39306375 98.14974309 6.33676874 95.70197836 6.27392578 93.25439453 C6.25750377 92.60049838 6.24108175 91.94660223 6.2241621 91.27289104 C5.98529624 82.93019921 5.28011836 74.62385167 4.58984375 66.30859375 C4.45600017 64.67477614 4.32218071 63.04095655 4.18838501 61.40713501 C3.84667635 57.25831067 3.49926455 53.10998327 3.14996338 48.96179199 C2.5846646 42.24543834 2.02580585 35.5285708 1.47415352 28.81108284 C1.28274602 26.49885396 1.08618221 24.18710585 0.8891449 21.87535095 C0.77085291 20.44743596 0.6527646 19.01950407 0.53491211 17.59155273 C0.43133896 16.36282944 0.32776581 15.13410614 0.22105408 13.8681488 C-0.04272464 9.25237629 0 4.62330349 0 0 Z " fill="#0245BB" transform="translate(1012,489)"/>
<path d="M0 0 C8.43228221 5.56405239 12.3960259 14.5263197 14.69799805 24.05371094 C15.48445416 28.60021708 15.38769714 33.16057502 15.3515625 37.76171875 C15.36316406 39.22738281 15.36316406 39.22738281 15.375 40.72265625 C15.34136321 53.37009036 13.07713343 66.23287399 4.078125 75.69140625 C-1.38604559 80.3780664 -7.33710341 82.11576316 -14.484375 81.76171875 C-21.28695457 80.70500736 -25.98928341 77.11630486 -30.29296875 71.8671875 C-39.56221241 57.54609328 -40.04184801 37.47884533 -36.7109375 21.125 C-33.65496026 10.82576902 -28.71555569 3.51286924 -19.5234375 -2.05078125 C-12.61628017 -3.53088639 -6.35726767 -3.20109768 0 0 Z " fill="#0245BB" transform="translate(1483.8984375,1118.61328125)"/>
<path d="M0 0 C8.4878501 5.39584756 12.90625928 14.59578298 15.27734375 24.10546875 C16.39613648 29.36747696 16.53205645 34.50995825 16.5 39.875 C16.49262817 41.33244629 16.49262817 41.33244629 16.48510742 42.81933594 C16.28754356 54.88390263 13.10361622 65.51541252 5.9375 75.375 C1.06521016 80.02582212 -4.13567078 82.18895404 -10.875 82.5 C-17.99735187 82.14719 -22.72408071 79.45909886 -27.5625 74.3125 C-35.78128247 64.22155751 -37.16116052 52.7930577 -37.125 40.1875 C-37.14111328 39.07568359 -37.15722656 37.96386719 -37.17382812 36.81835938 C-37.18055322 25.32517173 -35.0304189 13.59629125 -26.88671875 4.95703125 C-19.14546622 -2.1136043 -9.86937902 -4.95973869 0 0 Z " fill="#0245BB" transform="translate(894.8125,1118)"/>
<path d="M0 0 C8.30991184 5.8098358 12.44640976 14.35831472 14.90625 24.04296875 C16.21247783 32.84990693 15.73532115 42.0433233 13.28515625 50.59765625 C12.93517578 51.82742188 12.93517578 51.82742188 12.578125 53.08203125 C9.91868433 60.90248692 4.97594127 67.79795936 -2.1953125 72.078125 C-4.3496464 73.05161683 -6.46439266 73.87913873 -8.71484375 74.59765625 C-10.19984375 75.09265625 -10.19984375 75.09265625 -11.71484375 75.59765625 C-13.56509587 75.74409934 -15.42153249 75.81862139 -17.27734375 75.84765625 C-18.73333984 75.88632813 -18.73333984 75.88632813 -20.21875 75.92578125 C-23.71484375 75.59765625 -23.71484375 75.59765625 -33.71484375 72.59765625 C-33.71484375 49.49765625 -33.71484375 26.39765625 -33.71484375 2.59765625 C-21.74656184 -2.84247189 -12.00835059 -6.83200929 0 0 Z " fill="#0246BB" transform="translate(1111.71484375,1124.40234375)"/>
<path d="M0 0 C2.64 0.99 5.28 1.98 8 3 C8 9.6 8 16.2 8 23 C-1 23 -1 23 -3.4375 21 C-6.82260569 18.35796629 -9.15603223 18.31323672 -13.37109375 18.4765625 C-18.03567229 19.40531959 -21.36431876 22.05907788 -25 25 C-25.85639069 25.57248978 -26.71278137 26.14497955 -27.59512329 26.7348175 C-30.22316499 28.78442746 -30.22316499 28.78442746 -30.60800171 31.75212097 C-30.59991486 32.80611588 -30.591828 33.86011078 -30.58349609 34.94604492 C-30.58634613 36.14376022 -30.58919617 37.34147552 -30.59213257 38.57548523 C-30.5694632 39.86412979 -30.54679382 41.15277435 -30.5234375 42.48046875 C-30.51664616 43.8175622 -30.51192512 45.15466763 -30.50918579 46.49177551 C-30.49852183 49.2887362 -30.47185764 52.08489471 -30.43212891 54.8815918 C-30.38111433 58.47312005 -30.35609403 62.0641887 -30.34119225 65.65603161 C-30.31561193 71.58484006 -30.27301021 77.51382846 -30.19287109 83.44213867 C-30.18001068 84.4937468 -30.16715027 85.54535492 -30.15390015 86.62882996 C-30.26476698 88.95517431 -30.26476698 88.95517431 -29 90 C-26.31137336 90.39993686 -23.63647783 90.75134543 -20.9375 91.0625 C-20.17888672 91.15337891 -19.42027344 91.24425781 -18.63867188 91.33789062 C-16.7595699 91.5624374 -14.87983905 91.78170978 -13 92 C-13 94.64 -13 97.28 -13 100 C-29.83 100 -46.66 100 -64 100 C-64 97.36 -64 94.72 -64 92 C-60.90468901 90.4523445 -57.6333237 90.55590549 -54.21484375 90.28125 C-52.02929332 90.2334259 -52.02929332 90.2334259 -51 89 C-50.87588418 86.76142644 -50.82196977 84.51894516 -50.79467773 82.27709961 C-50.78477814 81.5746965 -50.77487854 80.8722934 -50.76467896 80.14860535 C-50.73297878 77.81655296 -50.70827312 75.48448016 -50.68359375 73.15234375 C-50.66303156 71.53950965 -50.64203529 69.92668104 -50.62062073 68.31385803 C-50.56532408 64.06090725 -50.51594844 59.80790723 -50.46777344 55.55487061 C-50.41761369 51.21817625 -50.36189885 46.88155373 -50.30664062 42.54492188 C-50.19896623 34.0300069 -50.09805512 25.51503119 -50 17 C-54.62 17 -59.24 17 -64 17 C-64 14.69 -64 12.38 -64 10 C-42.23853211 1.95107034 -42.23853211 1.95107034 -31 3 C-30.505 10.92 -30.505 10.92 -30 19 C-28.370625 17.14375 -26.74125 15.2875 -25.0625 13.375 C-18.30530893 5.85587948 -10.76620887 -1.43549452 0 0 Z " fill="#F7F9FC" transform="translate(1596,1107)"/>
<path d="M0 0 C2.97 0 5.94 0 9 0 C9 8.25 9 16.5 9 25 C18.24 25 27.48 25 37 25 C37 27.97 37 30.94 37 34 C27.76 34 18.52 34 9 34 C9.06774099 42.05183392 9.13830869 50.1028023 9.2355423 58.15419769 C9.28003713 61.90429103 9.31950551 65.65427692 9.34643555 69.40454102 C9.37261767 73.02279425 9.41312244 76.6406396 9.46318626 80.25863838 C9.47975501 81.63273573 9.49133108 83.00690347 9.49761391 84.38108635 C9.52170868 97.61445212 9.52170868 97.61445212 15.5 109 C20.22131552 112.77705242 25.20684924 112.39856877 31 112 C33.83378132 111.1025173 33.83378132 111.1025173 36 110 C36.99 110 37.98 110 39 110 C39 112.64 39 115.28 39 118 C27.25187961 122.78757989 14.16813564 127.06726283 1.5 122.8125 C-2.87528115 120.54672941 -5.85127104 118.24567032 -8.11862183 113.81318665 C-9.22095176 110.29476522 -9.26440268 107.01076782 -9.22705078 103.36401367 C-9.22734283 102.61225861 -9.22763489 101.86050354 -9.22793579 101.08596802 C-9.22654785 98.6131822 -9.21101211 96.14070162 -9.1953125 93.66796875 C-9.19158046 91.94875757 -9.18873439 90.22954427 -9.18673706 88.5103302 C-9.17911564 83.99429409 -9.15947998 79.47838745 -9.1373291 74.96240234 C-9.11683853 70.35060375 -9.10772848 65.73878416 -9.09765625 61.12695312 C-9.07623266 52.08457866 -9.04211473 43.04230011 -9 34 C-13.29 34 -17.58 34 -22 34 C-22 32.02 -22 30.04 -22 28 C-20.74896484 27.60748047 -20.74896484 27.60748047 -19.47265625 27.20703125 C-11.6880025 24.02361614 -8.31381876 20.79135154 -4.86694336 12.99682617 C-3.13950521 8.69914886 -1.49586271 4.38389699 0 0 Z " fill="#FDFDFE" transform="translate(1377,1085)"/>
<path d="M0 0 C5.99217242 2.44462442 8.95830657 6.81209829 11.93359375 12.40234375 C14.12949134 18.99003652 14.21250575 27.6768175 11.9453125 34.28125 C8.4385655 40.1192429 3.43423142 43.51595672 -3.06640625 45.40234375 C-6.8481941 45.76570137 -10.25300892 45.6467923 -14.06640625 45.40234375 C-13.40640625 50.35234375 -12.74640625 55.30234375 -12.06640625 60.40234375 C-9.42640625 60.40234375 -6.78640625 60.40234375 -4.06640625 60.40234375 C-4.06640625 61.72234375 -4.06640625 63.04234375 -4.06640625 64.40234375 C-11.4778908 65.68532098 -18.53921023 66.65750294 -26.06640625 66.40234375 C-26.06640625 65.41234375 -26.06640625 64.42234375 -26.06640625 63.40234375 C-23.09640625 62.90734375 -23.09640625 62.90734375 -20.06640625 62.40234375 C-20.20216064 61.59829102 -20.33791504 60.79423828 -20.4777832 59.96582031 C-25.0509266 32.83273931 -25.0509266 32.83273931 -26.87890625 20.65234375 C-27.00241455 19.83282227 -27.12592285 19.01330078 -27.25317383 18.16894531 C-28.06640625 12.66784265 -28.06640625 12.66784265 -28.06640625 10.40234375 C-30.04640625 10.40234375 -32.02640625 10.40234375 -34.06640625 10.40234375 C-34.06640625 9.41234375 -34.06640625 8.42234375 -34.06640625 7.40234375 C-25.47142917 2.62498676 -25.47142917 2.62498676 -21.06640625 3.40234375 C-20.40640625 4.06234375 -19.74640625 4.72234375 -19.06640625 5.40234375 C-18.50953125 4.96921875 -17.95265625 4.53609375 -17.37890625 4.08984375 C-11.28014299 -0.36060512 -7.52772995 -2.17720734 0 0 Z " fill="#F5F7FC" transform="translate(1059.06640625,877.59765625)"/>
<path d="M0 0 C5.89529791 3.50732914 10.36470426 8.94315885 12.46875 15.46875 C13.68486382 23.08546285 11.80716762 29.17804445 7.46875 35.46875 C3.37078973 39.89601065 -0.80221527 43.138343 -6.88671875 43.875 C-14.17161672 44.0532238 -19.79219046 43.99020695 -25.7265625 39.25390625 C-31.6132907 33.43088723 -33.65349241 28.42365009 -33.90625 20.21875 C-33.84156321 13.00617308 -32.00637657 9.10617643 -27.109375 3.98046875 C-18.85038564 -3.54586833 -9.86088721 -4.26087719 0 0 Z " fill="#FBFCFE" transform="translate(1327.53125,566.53125)"/>
<path d="M0 0 C4.24022938 3.90868881 7.71054781 8.12427368 8.30078125 13.98828125 C8.33572719 23.90128092 6.92064107 29.74980459 0 37 C-6.69100889 41.73266482 -14.01089984 41.84095791 -22 41 C-28.96021394 38.42871077 -33.28279388 33.07912822 -36.8125 26.75 C-38.73625953 20.67496989 -39.11461107 14.83382813 -36.5625 8.875 C-33.11145051 2.85402003 -27.79724617 -1.82221214 -21.4375 -4.5 C-12.74873635 -5.76382017 -7.39704297 -4.94785483 0 0 Z " fill="#FBFCFE" transform="translate(698,569)"/>
<path d="M0 0 C4.90648508 3.37624468 9.15734587 8.04234399 11.3671875 13.62890625 C12.26770076 20.95866531 11.94658098 27.6301686 7.3671875 33.62890625 C2.40017793 38.9019401 -2.14187841 41.64764117 -9.4453125 42.00390625 C-16.70891747 41.85258115 -22.4041773 38.56706172 -27.6328125 33.62890625 C-32.00550112 27.88194407 -34.25760272 22.30396044 -34.07421875 15.06640625 C-32.93835877 8.79404674 -29.0574511 3.35090862 -24.0078125 -0.43359375 C-15.926059 -5.07311891 -8.06177785 -4.40760752 0 0 Z " fill="#F5F8FC" transform="translate(1255.6328125,769.37109375)"/>
<path d="M0 0 C4.02717767 3.81645326 7.80906295 7.46773655 8.23828125 13.16015625 C8.40138417 21.73593584 8.42623427 29.15421746 2.3515625 35.8046875 C-3.58608228 41.22376068 -9.02861142 42.5256552 -16.9921875 42.37890625 C-22.98017619 41.62457521 -26.94355098 38.3986647 -30.875 34 C-35.06397607 28.08615143 -35.80128876 23.14916075 -35 16 C-33.17999922 7.90160725 -28.84267773 2.61398868 -22 -2 C-15.11344865 -4.42656042 -6.21198717 -3.91457869 0 0 Z " fill="#F6F8FC" transform="translate(938,876)"/>
<path d="M0 0 C0.79921875 0.00902344 1.5984375 0.01804688 2.421875 0.02734375 C3.02515625 0.03894531 3.6284375 0.05054688 4.25 0.0625 C4.25 1.3825 4.25 2.7025 4.25 4.0625 C5.075 3.5675 5.9 3.0725 6.75 2.5625 C12.06407362 0.28503988 16.08061637 0.2698406 21.5 2.25 C25.68560472 5.00869402 28.3174417 8.46749013 30.25 13.0625 C31.09295894 20.01417434 30.41490166 26.77082803 27.25 33.0625 C23.51278645 37.73401693 18.84362308 41.60046275 12.7890625 42.37890625 C7.55189436 42.49686049 4.42246974 41.78665658 -0.75 40.0625 C-1.08 44.3525 -1.41 48.6425 -1.75 53.0625 C-0.1 53.7225 1.55 54.3825 3.25 55.0625 C3.25 56.0525 3.25 57.0425 3.25 58.0625 C-3.02 57.4025 -9.29 56.7425 -15.75 56.0625 C-16.08 54.7425 -16.41 53.4225 -16.75 52.0625 C-13.78 51.5675 -13.78 51.5675 -10.75 51.0625 C-10.64453857 50.27302979 -10.53907715 49.48355957 -10.43041992 48.67016602 C-8.47367206 34.08533401 -6.51205354 19.5214318 -3.75 5.0625 C-5.4 4.7325 -7.05 4.4025 -8.75 4.0625 C-8.75 3.0725 -8.75 2.0825 -8.75 1.0625 C-5.75519083 0.1901588 -3.11424089 -0.04579766 0 0 Z " fill="#F2F5FB" transform="translate(1038.75,252.9375)"/>
<path d="M0 0 C0.24810442 4.87429768 0.42902231 9.74489484 0.54931641 14.62402344 C0.59946677 16.28125016 0.6676137 17.9380373 0.75439453 19.59375 C1.45788738 33.365657 1.45788738 33.365657 -2.13208008 37.39013672 C-4.723968 38.95825388 -7.13779337 40.02665793 -10 41 C-11.31563782 41.61836751 -12.6288925 42.24189048 -13.9375 42.875 C-20.09196194 44.95977717 -26.48006854 45.09960645 -32.4375 42.5 C-37.32730822 37.7294554 -39.22070865 33.21763803 -39.5 26.375 C-39.23707132 20.02965457 -36.92844048 16.97788767 -32.5625 12.5 C-24.30825079 6.0500716 -10.54776706 0 0 0 Z " fill="#0245BB" transform="translate(1005,1153)"/>
<path d="M0 0 C4.30348901 3.41747657 7.13990728 8.31815934 8.859375 13.4765625 C9.55409861 20.52629881 9.33993249 26.732592 4.859375 32.4765625 C-1.04644263 37.85890993 -6.3115214 38.83939314 -14.1953125 38.75390625 C-19.57436347 38.24739084 -22.44728554 35.3793287 -25.890625 31.5390625 C-30.90293943 24.71674564 -31.2137605 17.74437163 -30.140625 9.4765625 C-27.85388134 4.41360495 -24.23525553 0.75573932 -19.140625 -1.5234375 C-12.51936471 -3.44662514 -6.10453907 -3.39412372 0 0 Z " fill="#F5F7FC" transform="translate(934.140625,261.5234375)"/>
<path d="M0 0 C5.0971233 2.31687423 8.76833196 6.46303282 12 11 C14.14427166 17.43281498 13.31500148 22.84239057 10.3984375 28.8203125 C7.32937004 33.60394278 3.17217567 36.91391217 -1.875 39.4375 C-7.68662313 40.48359216 -12.82666193 41.04487407 -18.25 38.4375 C-27.59660238 30.15301152 -27.59660238 30.15301152 -28.23828125 23.546875 C-28.40341998 17.32375222 -28.13950854 12.8274152 -24 8 C-16.55243155 0.53515181 -10.58633357 -1.04409532 0 0 Z " fill="#F6F8FC" transform="translate(1253,367)"/>
<path d="M0 0 C1.19367187 -0.02578125 2.38734375 -0.0515625 3.6171875 -0.078125 C7.54719876 0.28949298 9.82982681 1.0907697 13.125 3.25 C16.35093317 7.37373206 16.46948977 10.92148028 16.19921875 15.95703125 C16.15955742 17.04512337 16.15955742 17.04512337 16.11909485 18.15519714 C16.03173971 20.45850791 15.92245563 22.76016856 15.8125 25.0625 C15.74919834 26.62949928 15.68733375 28.19655732 15.62695312 29.76367188 C15.476266 33.5933282 15.30591398 37.42165737 15.125 41.25 C17.105 41.25 19.085 41.25 21.125 41.25 C21.125 42.57 21.125 43.89 21.125 45.25 C16.505 45.25 11.885 45.25 7.125 45.25 C6.63 42.775 6.63 42.775 6.125 40.25 C4.93003906 40.79140625 4.93003906 40.79140625 3.7109375 41.34375 C2.65132812 41.8078125 1.59171875 42.271875 0.5 42.75 C-0.54414062 43.2140625 -1.58828125 43.678125 -2.6640625 44.15625 C-6.01262547 45.29687972 -8.36737486 45.58219848 -11.875 45.25 C-15.86958798 43.09906801 -18.19095369 41.45627093 -19.875 37.25 C-20.39754675 34.17522493 -20.40859521 31.32504868 -19.875 28.25 C-14.36606578 20.79673605 -5.55253333 18.95408384 3.125 17.25 C4.445 17.25 5.765 17.25 7.125 17.25 C7.03753716 15.81138706 6.92934652 14.37402492 6.8125 12.9375 C6.75449219 12.13699219 6.69648437 11.33648438 6.63671875 10.51171875 C6.01771413 7.77581285 5.41533659 6.85725375 3.125 5.25 C0.62296352 4.67428504 0.62296352 4.67428504 -2.0625 4.5625 C-2.96355469 4.49675781 -3.86460937 4.43101562 -4.79296875 4.36328125 C-5.48003906 4.32589844 -6.16710937 4.28851562 -6.875 4.25 C-6.875 6.89 -6.875 9.53 -6.875 12.25 C-8.35406892 12.27689216 -9.83327483 12.29634621 -11.3125 12.3125 C-12.54806641 12.32990234 -12.54806641 12.32990234 -13.80859375 12.34765625 C-15.875 12.25 -15.875 12.25 -16.875 11.25 C-17.3125 9 -17.3125 9 -16.875 6.25 C-11.34375979 0.71875979 -7.58424453 0.09786122 0 0 Z " fill="#F0F4FB" transform="translate(986.875,881.75)"/>
<path d="M0 0 C3.86471061 0.39487261 5.64247863 2.32460256 8.25 5.0625 C8.95640625 5.79597656 9.6628125 6.52945313 10.390625 7.28515625 C10.92171875 7.85105469 11.4528125 8.41695312 12 9 C10.58965853 12.4501678 9.11121614 13.88676806 5.9375 15.796875 C5.14085937 16.28027344 4.34421875 16.76367188 3.5234375 17.26171875 C2.69070313 17.75285156 1.85796875 18.24398437 1 18.75 C0.16726563 19.25660156 -0.66546875 19.76320313 -1.5234375 20.28515625 C-7.71150606 24 -7.71150606 24 -10 24 C-7.83804579 26.28356414 -5.57202228 28.0726359 -3 29.875 C1.47313725 33.22163026 3.5689429 35.71539735 4.625 41.3125 C3.72255902 46.63690176 0.90125174 49.381876 -3 53 C-7.43177001 56.05162666 -12.14919016 58.59407972 -16.87695312 61.15429688 C-19.45535124 62.64036869 -21.78549603 64.01038383 -24 66 C-24.84380202 69.77683065 -24.84380202 69.77683065 -24 73 C-25.485 73.495 -25.485 73.495 -27 74 C-28.67394001 71.37957157 -30.3378835 68.75294095 -32 66.125 C-32.47695313 65.37863281 -32.95390625 64.63226562 -33.4453125 63.86328125 C-33.89648438 63.14785156 -34.34765625 62.43242188 -34.8125 61.6953125 C-35.23144531 61.03547363 -35.65039062 60.37563477 -36.08203125 59.69580078 C-37 58 -37 58 -37 56 C-35.515 55.505 -35.515 55.505 -34 55 C-33.01 55.99 -32.02 56.98 -31 58 C-25.84907945 56.24471673 -21.41481114 53.34292803 -16.8125 50.5 C-15.99330078 50.00113281 -15.17410156 49.50226562 -14.33007812 48.98828125 C-9.9114653 46.3240441 -9.9114653 46.3240441 -6 43 C-5.24586647 39.75643424 -5.24586647 39.75643424 -6 36 C-8.0633079 33.05168222 -10.43604773 30.5181674 -13 28 C-16.45747227 29.28973742 -19.47072387 30.79333145 -22.57421875 32.78515625 C-23.40630859 33.31560547 -24.23839844 33.84605469 -25.09570312 34.39257812 C-25.95099609 34.94365234 -26.80628906 35.49472656 -27.6875 36.0625 C-29.39926939 37.15828694 -31.11148708 38.25337399 -32.82421875 39.34765625 C-33.57791748 39.83242432 -34.33161621 40.31719238 -35.1081543 40.81665039 C-37 42 -37 42 -39 43 C-38.67 44.98 -38.34 46.96 -38 49 C-39.98 49.495 -39.98 49.495 -42 50 C-43.53351528 47.56969216 -45.05183502 45.13194897 -46.5625 42.6875 C-47.00013672 41.99720703 -47.43777344 41.30691406 -47.88867188 40.59570312 C-48.29794922 39.92861328 -48.70722656 39.26152344 -49.12890625 38.57421875 C-49.51119385 37.96151123 -49.89348145 37.34880371 -50.28735352 36.7175293 C-51 35 -51 35 -50 32 C-47 33 -47 33 -46 35 C-42.90937929 34.36872244 -40.59579393 33.32888238 -37.90234375 31.69921875 C-37.10965088 31.22210449 -36.31695801 30.74499023 -35.50024414 30.25341797 C-34.23168579 29.47828857 -34.23168579 29.47828857 -32.9375 28.6875 C-32.06150146 28.15785645 -31.18550293 27.62821289 -30.28295898 27.08251953 C-23.18312887 22.77115961 -16.15570929 18.3462455 -9.18139648 13.8347168 C-5.54491728 11.5030103 -2.12213221 9.39316595 2 8 C1.01 5.69 0.02 3.38 -1 1 C-0.67 0.67 -0.34 0.34 0 0 Z " fill="#F5F7FC" transform="translate(753,714)"/>
<path d="M0 0 C5.44817874 2.5741395 9.79454641 5.98287763 14.1796875 10.08203125 C13.57223353 14.94166304 11.45209783 18.82258305 9.1796875 23.08203125 C7.5296875 22.75203125 5.8796875 22.42203125 4.1796875 22.08203125 C4.29828125 21.334375 4.416875 20.58671875 4.5390625 19.81640625 C5.53006069 13.89641648 5.53006069 13.89641648 3.5546875 8.51953125 C-0.90938372 5.81759341 -4.52654334 4.31002325 -9.8203125 5.08203125 C-13.65168947 7.74733697 -14.67579921 9.28063939 -15.5078125 13.89453125 C-15.14541027 19.14446621 -12.07992961 22.19372489 -8.8203125 26.08203125 C-7.36908724 28.03021526 -5.93192141 29.98893839 -4.5078125 31.95703125 C-3.83105469 32.88257813 -3.15429688 33.808125 -2.45703125 34.76171875 C0.3515316 38.74330905 0.50656051 41.17893603 0.1796875 46.08203125 C-1.86160486 51.96575629 -6.27096992 56.30735996 -11.8203125 59.08203125 C-22.60224545 60.24199229 -31.06647865 57.53754152 -39.5078125 50.83203125 C-40.95766851 49.59638414 -42.39992601 48.3514439 -43.8203125 47.08203125 C-43.21675842 43.23177246 -42.05258647 40.22101966 -40.2578125 36.76953125 C-39.80277344 35.88652344 -39.34773437 35.00351562 -38.87890625 34.09375 C-38.52957031 33.42988281 -38.18023438 32.76601563 -37.8203125 32.08203125 C-36.1703125 32.41203125 -34.5203125 32.74203125 -32.8203125 33.08203125 C-33.1503125 37.70203125 -33.4803125 42.32203125 -33.8203125 47.08203125 C-28.46627195 51.04798722 -24.76788867 52.89638582 -18.03125 52.4921875 C-15.65027179 52.17606269 -15.65027179 52.17606269 -13.1953125 50.58203125 C-11.21899474 46.98872623 -10.90289645 44.00884993 -11.8203125 40.08203125 C-13.48550338 36.81437929 -15.58438662 33.98064105 -17.8203125 31.08203125 C-18.90397498 29.64477936 -19.98732438 28.20729134 -21.0703125 26.76953125 C-21.54984375 26.15464844 -22.029375 25.53976562 -22.5234375 24.90625 C-26.17394954 19.77134301 -26.60512921 15.2820833 -25.8203125 9.08203125 C-20.73609654 -1.4774942 -10.63160218 -3.46042453 0 0 Z " fill="#F5F7FC" transform="translate(882.8203125,837.91796875)"/>
<path d="M0 0 C1.80078125 2.28515625 1.80078125 2.28515625 3.3125 5.0625 C3.82425781 5.98160156 4.33601563 6.90070312 4.86328125 7.84765625 C5.23839844 8.55792969 5.61351562 9.26820313 6 10 C5.01 10.99 4.02 11.98 3 13 C0.40588299 11.92657227 -0.81077002 11.30637235 -2.3125 8.875 C-3.95779131 6.64774089 -3.95779131 6.64774089 -7.3125 6.5 C-11.60763163 7.08239073 -13.6945595 8.23265447 -17 11 C-19.58043638 14.40148432 -19.4448292 17.84826076 -19 22 C-17.13291495 24.36497439 -15.67938569 25.66030715 -13 27 C-10.95242333 27.04965829 -8.90317349 27.03624926 -6.85546875 26.9921875 C-5.62119141 26.97542969 -4.38691406 26.95867188 -3.11523438 26.94140625 C-0.50831584 26.89733105 2.09848123 26.84531855 4.70507812 26.78515625 C5.94322266 26.77097656 7.18136719 26.75679687 8.45703125 26.7421875 C10.1582312 26.70907471 10.1582312 26.70907471 11.89379883 26.67529297 C15.4050941 27.04234655 17.19230665 27.89599304 20 30 C23.6220156 34.79672336 24.6714622 38.508256 24.37109375 44.515625 C23.41922904 50.88810872 20.70807894 54.71674407 15.75 58.75 C8.57790722 63.89136929 3.96572642 65.8792842 -5 67 C-7.64 62.38 -10.28 57.76 -13 53 C-10 51 -10 51 -8.0625 51 C-6 52 -6 52 -4.1875 55.0625 C-2.26151841 58.35701983 -2.26151841 58.35701983 1.375 58.5625 C6.21229222 57.81188569 9.39075109 56.17431677 13.3125 53.3125 C15.70131834 50.03893413 16.07420531 47.00708652 16 43 C15.22127172 40.30984775 14.63583532 39.4100366 12.30053711 37.90405273 C9.35431193 36.74626097 7.04044979 36.82347067 3.87890625 36.91015625 C2.10483398 36.94012695 2.10483398 36.94012695 0.29492188 36.97070312 C-2.18955472 37.03180747 -4.6739365 37.09689955 -7.15820312 37.16601562 C-8.34220703 37.18470703 -9.52621094 37.20339844 -10.74609375 37.22265625 C-11.82560303 37.25109619 -12.9051123 37.27953613 -14.01733398 37.30883789 C-18.59498744 36.83484823 -21.12045342 34.95493629 -24.1875 31.625 C-27.56322095 26.73602483 -28.52023392 23.20638559 -27.65234375 17.3359375 C-25.85730549 10.90819572 -21.51751363 7.06200321 -16 3.625 C-5.8474962 -1.96116026 -5.8474962 -1.96116026 0 0 Z " fill="#F7F9FC" transform="translate(1160,820)"/>
<path d="M0 0 C5.29415333 3.05932631 7.48326664 7.99906027 9.9375 13.375 C10.625 16.5 10.625 16.5 10.625 26.5 C-4.225 26.5 -19.075 26.5 -34.375 26.5 C-32.47658681 15.10952088 -30.99284492 8.84319624 -22.1875 2 C-15.73737049 -2.57997362 -7.29277135 -3.15325542 0 0 Z " fill="#0547BC" transform="translate(1667.375,1118.5)"/>
<path d="M0 0 C4.9024757 2.84087123 7.3694493 6.25044794 9.375 11.5 C10.625 16.3125 10.625 16.3125 10.625 26.3125 C-3.895 26.3125 -18.415 26.3125 -33.375 26.3125 C-31.88581308 9.93144384 -31.88581308 9.93144384 -24.08203125 3.390625 C-16.61580646 -1.72489606 -8.60887208 -4.00562903 0 0 Z " fill="#0346BB" transform="translate(596.375,1118.6875)"/>
<path d="M0 0 C4.94977328 2.94719325 9.0113979 6.89779579 11.609375 12.09375 C12.52333644 17.56594949 11.84356487 21.37071945 8.796875 26.03125 C6.82207107 28.79597551 5.48797411 30.17468392 2.609375 32.09375 C-9.81285855 19.85509625 -9.81285855 19.85509625 -15.0859375 13.51953125 C-16.35411425 11.9628599 -16.35411425 11.9628599 -18.390625 11.09375 C-18.65875 11.650625 -18.926875 12.2075 -19.203125 12.78125 C-20.390625 15.09375 -20.390625 15.09375 -22.015625 17.21875 C-24.07309334 21.52072925 -24.01540767 25.41164374 -23.390625 30.09375 C-21.85350255 34.1671245 -20.32564282 35.62499772 -16.453125 37.56640625 C-13.45810777 38.83434397 -10.45478907 40.00491182 -7.390625 41.09375 C-8.380625 42.41375 -9.370625 43.73375 -10.390625 45.09375 C-17.64538497 44.549643 -23.00438662 40.91240165 -27.765625 35.59375 C-32.03519955 30.53704719 -32.97230637 25.41851099 -32.82421875 18.9375 C-31.60602002 10.94787228 -25.61521486 6.01261497 -19.44140625 1.40625 C-13.97374515 -2.0930531 -5.99960642 -2.2743606 0 0 Z " fill="#F4F7FC" transform="translate(782.390625,786.90625)"/>
<path d="M0 0 C1.59134766 -0.02126953 1.59134766 -0.02126953 3.21484375 -0.04296875 C6.0625 0.1875 6.0625 0.1875 9.0625 2.1875 C7.73804915 8.81644341 5.84581885 14.94040042 3.4375 21.25 C3.11265625 22.11560547 2.7878125 22.98121094 2.453125 23.87304688 C1.66158318 25.97994496 0.86466278 28.08462802 0.0625 30.1875 C2.45902528 30.26889142 4.85275436 30.32817009 7.25 30.375 C7.92353516 30.40013672 8.59707031 30.42527344 9.29101562 30.45117188 C13.77235225 30.51675241 16.61380042 30.1094 20.0625 27.1875 C23.04245671 22.6755482 23.40112712 19.15232498 23.25 13.8125 C23.22292969 12.56726563 23.19585938 11.32203125 23.16796875 10.0390625 C23.11576172 8.62753906 23.11576172 8.62753906 23.0625 7.1875 C25.5375 7.6825 25.5375 7.6825 28.0625 8.1875 C30.47792542 15.43377626 29.54891202 22.98935593 26.46875 29.88671875 C23.83389986 34.19762634 19.99641816 38.17580408 15.13671875 39.8515625 C6.02101949 41.32792811 -0.92107198 39.96119704 -8.6875 35.08984375 C-13.61952495 31.45247535 -16.38633561 26.72507553 -17.3203125 20.73046875 C-17.59545927 14.75978388 -16.44161475 10.06621925 -12.9375 5.1875 C-8.52585497 1.09097247 -5.95065859 0.0360646 0 0 Z " fill="#F3F6FB" transform="translate(1293.9375,669.8125)"/>
<path d="M0 0 C3.58702072 1.71741773 6.90118302 3.79853011 10.25 5.9375 C12.00459859 7.03092696 13.75978495 8.12341145 15.515625 9.21484375 C16.28165039 9.70073975 17.04767578 10.18663574 17.83691406 10.68725586 C19.84910591 11.90842466 21.87932512 12.98151006 24 14 C24.66 12.68 25.32 11.36 26 10 C26.99 10.33 27.98 10.66 29 11 C27.56691865 14.95906817 25.66858051 18.28718181 23.375 21.8125 C22.42753906 23.27623047 22.42753906 23.27623047 21.4609375 24.76953125 C20.97882812 25.50558594 20.49671875 26.24164063 20 27 C19.01 26.67 18.02 26.34 17 26 C17.1753125 25.13117188 17.350625 24.26234375 17.53125 23.3671875 C17.34924695 20.03837358 17.34924695 20.03837358 15.44140625 18.47363281 C13.18653459 16.89795201 10.88279283 15.49940088 8.5 14.125 C7.70851563 13.62742187 6.91703125 13.12984375 6.1015625 12.6171875 C0.78022674 9.44183305 -2.81778832 8.41864523 -9 9 C-9.66 10.051875 -10.32 11.10375 -11 12.1875 C-11.37125 12.77917969 -11.7425 13.37085938 -12.125 13.98046875 C-13.25273621 16.58332419 -13.38315828 18.18200143 -13 21 C-11.00108529 22.89214598 -11.00108529 22.89214598 -8.2578125 24.33203125 C-7.27425781 24.90244141 -6.29070313 25.47285156 -5.27734375 26.06054688 C-4.23707031 26.63869141 -3.19679688 27.21683594 -2.125 27.8125 C-1.09246094 28.40998047 -0.05992187 29.00746094 1.00390625 29.62304688 C5.72362316 32.71298869 5.72362316 32.71298869 11 34 C11.495 33.01 11.495 33.01 12 32 C13.32 32 14.64 32 16 32 C14.56954422 35.89283238 12.75321733 39.29321861 10.5625 42.8125 C9.96566406 43.78832031 9.36882813 44.76414062 8.75390625 45.76953125 C8.17511719 46.50558594 7.59632813 47.24164063 7 48 C6.01 48 5.02 48 4 48 C4.33 46.02 4.66 44.04 5 42 C-5.69451559 35.33943753 -16.40768227 28.70930955 -27.1875 22.1875 C-28.46898926 21.40584473 -28.46898926 21.40584473 -29.77636719 20.60839844 C-30.5655957 20.13305664 -31.35482422 19.65771484 -32.16796875 19.16796875 C-32.86172607 18.74797607 -33.5554834 18.3279834 -34.27026367 17.89526367 C-35.97141805 16.84678174 -35.97141805 16.84678174 -38 17 C-39.63676257 18.9600281 -39.63676257 18.9600281 -41 21 C-41.33 20.67 -41.66 20.34 -42 20 C-41.94921875 17.85546875 -41.94921875 17.85546875 -41.6875 15.1875 C-41.60886719 14.31480469 -41.53023437 13.44210937 -41.44921875 12.54296875 C-41.00244976 10.01386775 -40.26661261 8.21786452 -39 6 C-34.11963459 7.67491831 -30.00847052 10.36791961 -25.6875 13.125 C-24.94693359 13.59292969 -24.20636719 14.06085938 -23.44335938 14.54296875 C-21.62658032 15.69164196 -19.81296963 16.84532369 -18 18 C-17.84144531 17.11957031 -17.68289063 16.23914063 -17.51953125 15.33203125 C-15.18772239 3.72451864 -15.18772239 3.72451864 -10 0 C-6.66646666 -1.66676667 -3.46882507 -0.92621948 0 0 Z " fill="#F4F7FC" transform="translate(730,401)"/>
<path d="M0 0 C0.96818542 1.85313416 0.96818542 1.85313416 1.80932617 4.30444336 C2.12943161 5.21886703 2.44953705 6.13329071 2.77934265 7.07542419 C3.11383926 8.07018265 3.44833588 9.0649411 3.79296875 10.08984375 C4.14386063 11.10470352 4.4947525 12.11956329 4.85627747 13.16517639 C5.59710085 15.31452953 6.33227221 17.46583771 7.06225586 19.61889648 C8.18287695 22.92386556 9.31929213 26.22304907 10.45898438 29.52148438 C11.17540593 31.60645262 11.89093109 33.69172913 12.60546875 35.77734375 C13.11632271 37.26644508 13.11632271 37.26644508 13.63749695 38.78562927 C13.9481459 39.70320511 14.25879486 40.62078094 14.57885742 41.56616211 C14.85404709 42.37588974 15.12923676 43.18561737 15.4127655 44.0198822 C16 46 16 46 16 48 C14.0429132 48.67031719 12.08428887 49.33614683 10.125 50 C9.03445313 50.37125 7.94390625 50.7425 6.8203125 51.125 C4 52 4 52 2 52 C1.505 49.03 1.505 49.03 1 46 C6.75 43 6.75 43 9 43 C8.71125 42.15695312 8.4225 41.31390625 8.125 40.4453125 C7.75375 39.34960938 7.3825 38.25390625 7 37.125 C6.62875 36.03445313 6.2575 34.94390625 5.875 33.8203125 C5 31 5 31 5 29 C0.07440378 30.77799386 -4.85113068 32.55615866 -9.77661133 34.33447266 C-11.44749336 34.9377082 -13.11839141 35.54089939 -14.78930664 36.14404297 C-23.86316048 39.4194299 -32.93654302 42.69591771 -42 46 C-42 48.64 -42 51.28 -42 54 C-43.98 54.495 -43.98 54.495 -46 55 C-47.17692357 51.75362269 -48.33972274 48.5023602 -49.5 45.25 C-49.83386719 44.32960938 -50.16773438 43.40921875 -50.51171875 42.4609375 C-50.82753906 41.57148437 -51.14335938 40.68203125 -51.46875 39.765625 C-51.76201172 38.94868164 -52.05527344 38.13173828 -52.35742188 37.29003906 C-53 35 -53 35 -53 31 C-51.125 31.25 -51.125 31.25 -49 32 C-47.75 34.0625 -47.75 34.0625 -47 36 C-42.07609154 35.22795209 -37.53896541 33.5148271 -32.8671875 31.83984375 C-31.07423826 31.20502303 -29.28126891 30.5702591 -27.48828125 29.93554688 C-24.67215957 28.93401279 -21.85659744 27.930934 -19.04150391 26.92651367 C-16.31811392 25.9561785 -13.59276859 24.99150377 -10.8671875 24.02734375 C-9.60151443 23.57269997 -9.60151443 23.57269997 -8.31027222 23.10887146 C-7.52580719 22.83180862 -6.74134216 22.55474579 -5.93310547 22.26928711 C-5.24425262 22.02359482 -4.55539978 21.77790253 -3.84567261 21.52476501 C-2 21 -2 21 1 21 C-0.32 16.71 -1.64 12.42 -3 8 C-6.3 8 -9.6 8 -13 8 C-13.495 5.525 -13.495 5.525 -14 3 C-12.23358317 2.3012307 -10.46167336 1.61633417 -8.6875 0.9375 C-7.70136719 0.55464844 -6.71523438 0.17179688 -5.69921875 -0.22265625 C-3 -1 -3 -1 0 0 Z " fill="#F3F6FB" transform="translate(732,659)"/>
<path d="M0 0 C2.59370624 2.0951593 3.80105892 3.82114552 4.85546875 6.984375 C5.07286425 9.04704205 5.24492305 11.11462611 5.390625 13.18359375 C5.47763672 14.39208984 5.56464844 15.60058594 5.65429688 16.84570312 C5.74130859 18.10833984 5.82832031 19.37097656 5.91796875 20.671875 C6.00884766 21.94611328 6.09972656 23.22035156 6.19335938 24.53320312 C6.41752822 27.68336526 6.63808528 30.83373854 6.85546875 33.984375 C8.50546875 34.314375 10.15546875 34.644375 11.85546875 34.984375 C11.85546875 35.974375 11.85546875 36.964375 11.85546875 37.984375 C7.89546875 37.984375 3.93546875 37.984375 -0.14453125 37.984375 C-0.47453125 36.994375 -0.80453125 36.004375 -1.14453125 34.984375 C-1.75039063 35.3453125 -2.35625 35.70625 -2.98046875 36.078125 C-9.01934884 39.42273551 -14.20432948 41.38002801 -21.14453125 39.984375 C-24.24253106 37.79310684 -24.94805237 36.57381164 -26.14453125 32.984375 C-27.02937649 26.23743004 -27.02937649 26.23743004 -24.93359375 23.26953125 C-19.16740366 17.95001786 -11.75935584 15.3528755 -4.14453125 13.984375 C-3.84890758 8.66267006 -3.84890758 8.66267006 -6.14453125 3.984375 C-8.58146436 3.62021453 -8.58146436 3.62021453 -11.26953125 3.796875 C-12.17960938 3.82394531 -13.0896875 3.85101563 -14.02734375 3.87890625 C-14.72601562 3.91371094 -15.4246875 3.94851562 -16.14453125 3.984375 C-16.47453125 6.294375 -16.80453125 8.604375 -17.14453125 10.984375 C-19.78453125 10.984375 -22.42453125 10.984375 -25.14453125 10.984375 C-25.45703125 8.234375 -25.45703125 8.234375 -25.14453125 4.984375 C-19.01140006 -1.32398851 -8.16908144 -3.86878174 0 0 Z " fill="#F4F7FC" transform="translate(994.14453125,251.015625)"/>
<path d="M0 0 C0.70226141 1.24176695 1.38629109 2.49385599 2.0625 3.75 C2.44535156 4.44609375 2.82820312 5.1421875 3.22265625 5.859375 C4.1312406 8.36140628 3.88336837 9.5332355 3 12 C1.68 12 0.36 12 -1 12 C-1.433125 11.175 -1.86625 10.35 -2.3125 9.5 C-2.869375 8.675 -3.42625 7.85 -4 7 C-8.38957115 6.25460113 -10.47489855 6.70827697 -14.375 8.875 C-17.03793194 10.73102809 -17.03793194 10.73102809 -18 13 C-18.38581681 17.78439938 -18.38581681 17.78439938 -16.80175781 22.19506836 C-14.44173665 24.55924674 -13.22223682 24.49713598 -9.921875 24.50390625 C-8.92542969 24.52259766 -7.92898438 24.54128906 -6.90234375 24.56054688 C-5.86207031 24.56119141 -4.82179688 24.56183594 -3.75 24.5625 C8.95688124 24.61844224 8.95688124 24.61844224 15 28 C18.33971352 31.51098088 19.26692804 34.2737354 19.4375 39 C19.11934614 45.44984648 17.07360214 49.19494685 12.4375 53.625 C6.10970041 58.87102503 -0.76183448 61.71636222 -9 61 C-10.03307771 59.23628182 -11.05112049 57.46374967 -12.0625 55.6875 C-12.63097656 54.70136719 -13.19945312 53.71523438 -13.78515625 52.69921875 C-15 50 -15 50 -14 47 C-11.9375 46.3125 -11.9375 46.3125 -10 46 C-9.56300781 46.86625 -9.56300781 46.86625 -9.1171875 47.75 C-6.67585312 52.4709795 -6.67585312 52.4709795 -2.1875 54.8125 C3.37080563 53.395677 7.80417442 50.79373837 11 46 C11.53663581 41.26766878 11.53663581 41.26766878 9.625 37.125 C6.67605008 35.08341929 4.78928115 34.87010413 1.23828125 34.82421875 C0.28373047 34.80037109 -0.67082031 34.77652344 -1.65429688 34.75195312 C-3.65669283 34.70940382 -5.65935853 34.67792818 -7.66210938 34.65820312 C-13.94494891 34.47700789 -17.91632545 33.79590023 -23 30 C-25.63650797 26.73575204 -26.79552295 23.09054429 -27.5625 19 C-26.55175619 13.60936636 -23.58270815 9.58270815 -19.75 5.75 C-13.16477399 1.55940163 -7.8519882 -0.57105369 0 0 Z " fill="#F2F5FB" transform="translate(864,264)"/>
<path d="M0 0 C6.49386695 2.13434788 11.82638196 5.5855766 16 11 C16.22905722 15.46661582 13.25907074 19.28346427 11 23 C8.525 22.01 8.525 22.01 6 21 C6.20238281 20.40832031 6.40476562 19.81664062 6.61328125 19.20703125 C7.33148448 16.74748612 7.86695599 14.56217009 8 12 C5.85623326 9.14164435 4.17551166 7.58775583 1 6 C-3.35477171 5.50700698 -5.34134023 5.54717141 -9 8.0625 C-11.27123838 10.85718279 -11.27123838 10.85718279 -11.1875 14.25 C-9.8891294 18.35011767 -8.08601534 21.18559654 -5.6328125 24.67578125 C-1.17420408 31.022365 2.27948201 36.06721155 1 44 C-0.93274367 48.24863036 -3.24725454 50.5512479 -7.25 52.9375 C-15.85572827 55.37578968 -21.28664777 54.02991635 -29.1796875 49.80078125 C-33.02737585 47.34401625 -36.07168307 44.48510958 -39 41 C-37.58707905 36.1725201 -35.57025846 32.2837641 -33 28 C-31.35 28.33 -29.7 28.66 -28 29 C-28.51390083 32.08340496 -29.01505424 35.05268985 -29.875 38.0625 C-30.32995189 41.20162917 -30.32995189 41.20162917 -27.8125 43.75 C-24.11355388 46.7091569 -22.28704278 47.83619456 -17.5625 48.4375 C-13.89070973 48.26494413 -13.89070973 48.26494413 -11 45.9375 C-8.6810187 43.14998541 -8.6810187 43.14998541 -9.09765625 39.79296875 C-10.1608589 35.32383554 -11.96012437 32.18992585 -14.4375 28.375 C-21.82639283 16.74887479 -21.82639283 16.74887479 -21 10 C-15.92739215 0.60628176 -10.31756574 -1.47760904 0 0 Z " fill="#F6F8FC" transform="translate(1176,281)"/>
<path d="M0 0 C2.59147084 1.72764723 3.853697 3.24324371 5.625 5.75 C0.35928586 11.8114973 -4.99162147 17.79288271 -10.375 23.75 C-9.65346354 26.94525998 -9.65346354 26.94525998 -6.8125 28.4375 C-2.76071282 29.98454602 0.34983146 30.49239454 4.625 29.75 C8.86624397 27.82943669 10.78555118 26.00694503 12.4375 21.75 C13.28772326 19.11173145 13.96983387 16.4427929 14.625 13.75 C15.285 13.75 15.945 13.75 16.625 13.75 C16.625 14.41 16.625 15.07 16.625 15.75 C17.285 15.75 17.945 15.75 18.625 15.75 C17.99962079 23.25455056 15.80446293 29.11320718 10.0625 34.1875 C5.31244371 38.07006271 0.67494672 38.21064267 -5.296875 38.16015625 C-11.53167875 37.32937656 -15.25224886 33.1673723 -19.25 28.625 C-23.01348207 23.53323014 -23.93425867 19.96759419 -23.82421875 13.64453125 C-22.90738353 7.73692346 -19.4246982 3.57810921 -15.0625 -0.3125 C-9.84386753 -2.13295319 -5.15488962 -1.90921838 0 0 Z " fill="#F3F6FB" transform="translate(773.375,351.25)"/>
<path d="M0 0 C4.42438864 3.12900063 7.94226914 6.90881042 8.89453125 12.33984375 C9.23514296 17.70447812 9.39007035 21.00055383 5.89453125 25.33984375 C2.44152558 28.60620046 -0.61293592 29.93321623 -5.10546875 31.33984375 C-6.44381861 27.54992882 -7.77529538 23.75763539 -9.10546875 19.96484375 C-9.48703125 18.88460938 -9.86859375 17.804375 -10.26171875 16.69140625 C-10.62265625 15.66015625 -10.98359375 14.62890625 -11.35546875 13.56640625 C-11.690625 12.61330566 -12.02578125 11.66020508 -12.37109375 10.67822266 C-13.10546875 8.33984375 -13.10546875 8.33984375 -13.10546875 6.33984375 C-20.27405937 9.42722349 -20.27405937 9.42722349 -25.10546875 15.33984375 C-26.01887579 21.00926678 -25.30035345 25.49243247 -22.10546875 30.33984375 C-19.54349752 33.15341267 -19.54349752 33.15341267 -17.10546875 35.33984375 C-19.29296875 36.15234375 -19.29296875 36.15234375 -22.10546875 36.33984375 C-26.68511642 32.65378587 -30.24149876 27.93175373 -32.10546875 22.33984375 C-32.60461711 17.12742565 -32.77776021 12.7361414 -30.48046875 7.96484375 C-22.18517924 -1.20363413 -11.60325882 -6.43099749 0 0 Z " fill="#F2F6FB" transform="translate(1312.10546875,470.66015625)"/>
<path d="M0 0 C1.9609375 0.3046875 1.9609375 0.3046875 4.375 0.875 C5.56222656 1.14957031 5.56222656 1.14957031 6.7734375 1.4296875 C8.53566943 1.8810662 10.27422954 2.42474318 12 3 C11.67 4.65 11.34 6.3 11 8 C8.03 8 5.06 8 2 8 C1.505 9.258125 1.01 10.51625 0.5 11.8125 C0.2215625 12.52019531 -0.056875 13.22789062 -0.34375 13.95703125 C-1.1529162 16.11841216 -1.1529162 16.11841216 -1 19 C4.80108002 20.99770281 10.60350425 22.9914319 16.40722656 24.98144531 C18.38253909 25.65938245 20.35747583 26.33841555 22.33203125 27.01855469 C25.16569157 27.99440357 28.00066763 28.9663391 30.8359375 29.9375 C31.72243988 30.24373291 32.60894226 30.54996582 33.52230835 30.86547852 C34.34300812 31.14576904 35.16370789 31.42605957 36.00927734 31.71484375 C36.73319672 31.96355225 37.45711609 32.21226074 38.20297241 32.46850586 C40.00731608 33.09453937 40.00731608 33.09453937 42 33 C43.6446674 30.53673288 43.6446674 30.53673288 45 28 C45.99 28.33 46.98 28.66 48 29 C46.07443364 35.85618326 43.7527517 42.43252132 41 49 C40.01 49 39.02 49 38 49 C38 46.69 38 44.38 38 42 C32.19891998 40.00229719 26.39649575 38.0085681 20.59277344 36.01855469 C18.61746091 35.34061755 16.64252417 34.66158445 14.66796875 33.98144531 C11.83430843 33.00559643 8.99933237 32.0336609 6.1640625 31.0625 C5.27756012 30.75626709 4.39105774 30.45003418 3.47769165 30.13452148 C2.65699188 29.85423096 1.83629211 29.57394043 0.99072266 29.28515625 C0.26680328 29.03644775 -0.45711609 28.78773926 -1.20297241 28.53149414 C-3.00731608 27.90546063 -3.00731608 27.90546063 -5 28 C-5.50615298 29.26839526 -6.00469099 30.53983102 -6.5 31.8125 C-6.7784375 32.52019531 -7.056875 33.22789062 -7.34375 33.95703125 C-8.1529162 36.11841216 -8.1529162 36.11841216 -8 39 C-4.535 40.98 -4.535 40.98 -1 43 C-1.33 44.32 -1.66 45.64 -2 47 C-6.571279 46.45144652 -10.67435795 45.58255197 -15 44 C-14.22182629 39.22831519 -12.66151746 34.79046326 -11.09375 30.234375 C-10.80898804 29.4003717 -10.52422607 28.56636841 -10.23083496 27.70709229 C-9.63054324 25.9516564 -9.02866315 24.19676297 -8.42529297 22.44238281 C-7.49896818 19.74699764 -6.57923551 17.04942569 -5.66015625 14.3515625 C-5.07591309 12.64569894 -4.49129096 10.93996512 -3.90625 9.234375 C-3.63018921 8.42401794 -3.35412842 7.61366089 -3.06970215 6.77874756 C-1.11505713 1.11505713 -1.11505713 1.11505713 0 0 Z " fill="#F4F7FC" transform="translate(676,449)"/>
<path d="M0 0 C3.84484062 3.07587249 6.52537529 6.24218062 7.37109375 11.15625 C7.59995246 19.23361615 5.39347096 26.67957142 0.35546875 33.09375 C-2.60697896 35.92914013 -4.54453604 36.9136189 -8.625 37.6875 C-12.91246907 36.81412667 -14.33619063 35.42489776 -17 32 C-19.56530332 27.60233717 -19.62773736 22.95127843 -19 18 C-17.18946329 11.26192305 -14.11209523 5.77615754 -9 1 C-5.86128812 -0.56935594 -3.46144178 -0.35201103 0 0 Z " fill="#0648BC" transform="translate(931,877)"/>
<path d="M0 0 C7.49216861 3.08568039 14.33073618 8.66147235 18 16 C18.55512815 20.63213493 18.6364242 23.98172127 16.125 28 C12.99106797 30.94958308 10.67911471 31.47309353 6.34765625 31.40234375 C-1.86156419 29.99543908 -8.34146416 23.53281556 -13 17 C-15.03669101 13.28082512 -15.52781014 10.22248113 -15 6 C-10.91984292 -0.12023563 -7.08758903 -1.10945543 0 0 Z " fill="#0447BC" transform="translate(1243,773)"/>
<path d="M0 0 C4.1211663 1.82098046 6.43373926 4.33391323 9 8 C10.18813473 11.56440418 10.24187953 14.55474782 10.3125 18.3125 C10.34988281 19.60800781 10.38726563 20.90351562 10.42578125 22.23828125 C9.85139827 27.31287584 7.92281202 30.20957745 4.2199707 33.6574707 C1.38626053 35.3711595 -0.46574143 35.30479495 -3.75 35.1875 C-4.73484375 35.16042969 -5.7196875 35.13335938 -6.734375 35.10546875 C-7.48203125 35.07066406 -8.2296875 35.03585937 -9 35 C-9.67263581 30.60505845 -10.33706636 26.20891462 -11 21.8125 C-11.19078125 20.56662109 -11.3815625 19.32074219 -11.578125 18.03710938 C-11.75859375 16.83505859 -11.9390625 15.63300781 -12.125 14.39453125 C-12.29257813 13.28956299 -12.46015625 12.18459473 -12.6328125 11.04614258 C-12.96105202 8.32310767 -13.07129462 5.73815891 -13 3 C-8.45940437 0.34209036 -5.25927594 -0.57373919 0 0 Z " fill="#0346BB" transform="translate(1053,884)"/>
<path d="M0 0 C3.22010926 0.74612288 4.71793883 1.99649453 6.921875 4.4453125 C11.19049969 11.48277483 12.89528919 18.20373905 11.921875 26.4453125 C10.60601323 29.55723204 9.01685699 31.89782151 5.921875 33.4453125 C-0.87133851 34.3510743 -0.87133851 34.3510743 -3.83203125 32.12890625 C-10.06593567 25.14505844 -11.74025918 18.74666534 -11.484375 9.4921875 C-11.10093763 6.61640725 -10.73128476 4.97851216 -9.078125 2.6328125 C-5.73100782 0.19220622 -4.04605206 -0.34984661 0 0 Z " fill="#0547BC" transform="translate(923.078125,262.5546875)"/>
<path d="M0 0 C3.0625 2 3.0625 2 5 5 C5.67645399 9.73517795 5.56664383 11.86671234 3.4375 16.125 C-1.99633617 22.5341401 -7.57254672 27.24015654 -16.125 28.4375 C-19.76182173 27.88407061 -21.38868387 26.5367071 -24 24 C-25.60745059 20.78509882 -25.40305242 18.5698929 -25 15 C-20.05400953 5.52778948 -10.87095672 -1.61190048 0 0 Z " fill="#0447BC" transform="translate(1255,373)"/>
<path d="M0 0 C3.81684226 1.55500981 6.19195732 4.03595495 9 7 C9.54269531 6.48308594 10.08539062 5.96617187 10.64453125 5.43359375 C11.35996094 4.77488281 12.07539062 4.11617187 12.8125 3.4375 C13.87404297 2.44556641 13.87404297 2.44556641 14.95703125 1.43359375 C15.63121094 0.96050781 16.30539062 0.48742187 17 0 C17.99 0.33 18.98 0.66 20 1 C19.52794881 5.24846075 17.11122478 7.26819288 14 10 C13.34 10 12.68 10 12 10 C14.55958614 14.72749184 17.90721664 18.55099366 21.4375 22.5625 C22.01048828 23.22185547 22.58347656 23.88121094 23.17382812 24.56054688 C28.14979784 31.03942761 28.14979784 31.03942761 35 34.5625 C38.21449361 34.26290371 38.21449361 34.26290371 40.375 31.5 C40.91125 30.675 41.4475 29.85 42 29 C42.99 29.33 43.98 29.66 45 30 C44.68327951 35.22588808 41.69889181 38.5609835 38 42 C35.29967632 43.94590953 33.95328488 43.99904663 30.5546875 43.9296875 C26.28829935 42.81386291 24.93916275 41.46977929 22.125 38.125 C21.279375 37.13757813 20.43375 36.15015625 19.5625 35.1328125 C18.70517966 34.0911292 17.85100927 33.0468455 17 32 C15.7625 30.48019531 15.7625 30.48019531 14.5 28.9296875 C12.99020467 27.06727549 11.49146329 25.19580581 10.0078125 23.3125 C8.14447122 21.16639487 6.3397213 19.59478761 4 18 C2.02 18.99 2.02 18.99 0 20 C-1.00771943 17.20077935 -0.94718702 15.68899022 -0.4375 12.6875 C0.07473321 8.37010579 -0.59431418 6.05168266 -2 2 C-1.34 1.34 -0.68 0.68 0 0 Z " fill="#F4F6FB" transform="translate(1185,803)"/>
<path d="M0 0 C2.64 1.32 5.28 2.64 8 4 C6 8 6 8 3.875 9.3125 C1.60207619 10.97302188 1.60207619 10.97302188 1.6875 14.5 C1.86167123 17.96935792 1.86167123 17.96935792 3 21 C5.38375278 22.6329509 5.38375278 22.6329509 8.34765625 24.13671875 C9.96704102 25.00200195 9.96704102 25.00200195 11.61914062 25.88476562 C12.75544922 26.47966797 13.89175781 27.07457031 15.0625 27.6875 C16.20267578 28.29400391 17.34285156 28.90050781 18.51757812 29.52539062 C21.34064489 31.02551397 24.1681308 32.51657973 27 34 C27.66 32.35 28.32 30.7 29 29 C30.32 29 31.64 29 33 29 C31.56347895 33.91441412 29.45840385 38.00238358 26.875 42.375 C26.50246094 43.01566406 26.12992188 43.65632812 25.74609375 44.31640625 C24.83565998 45.88048477 23.91851809 47.44065534 23 49 C22.01 48.67 21.02 48.34 20 48 C20 45.69 20 43.38 20 41 C16.25443921 38.8463472 12.50283234 36.70345274 8.75 34.5625 C7.68652344 33.95083984 6.62304688 33.33917969 5.52734375 32.70898438 C4.50253906 32.12568359 3.47773437 31.54238281 2.421875 30.94140625 C1.47924805 30.40201416 0.53662109 29.86262207 -0.43457031 29.30688477 C-2.69903337 28.15331884 -4.4779846 27.27304747 -7 27 C-9.27144074 28.85432087 -9.27144074 28.85432087 -11 31 C-11.33 30.67 -11.66 30.34 -12 30 C-11.85665573 24.76242091 -10.88208784 19.89342839 -9 15 C-4.25 16.875 -4.25 16.875 -2 18 C-2.33 17.175 -2.66 16.35 -3 15.5 C-4.2138645 11.25147426 -4.42668799 8.40910925 -4 4 C-2 1.5 -2 1.5 0 0 Z " fill="#F4F7FC" transform="translate(1266,716)"/>
<path d="M0 0 C3.0220794 1.74450506 5.41651082 3.83302164 7 7 C7.65690114 14.60282301 7.92791939 21.79051643 3 28 C-0.33599367 30.96532771 -2.18097829 31.91527362 -6.625 32.375 C-9.74406418 32.02843731 -11.32080062 31.46244507 -14 30 C-14.20923832 23.72285035 -13.63439176 17.98863291 -12.5 11.8125 C-12.08764389 9.4929969 -11.79663573 7.21635727 -11.5625 4.875 C-11.376875 3.92625 -11.19125 2.9775 -11 2 C-7.3112362 -0.45917586 -4.2815571 -0.81591937 0 0 Z " fill="#0548BC" transform="translate(1053,259)"/>
<path d="M0 0 C-0.433125 0.8353125 -0.433125 0.8353125 -0.875 1.6875 C-2.0413253 4.08494645 -3.0339881 6.51596939 -4 9 C-1.69 10.98 0.62 12.96 3 15 C2.34 15.99 1.68 16.98 1 18 C-2.43998071 16.79135813 -4.49924271 15.61442808 -7 13 C-7.99 12.67 -8.98 12.34 -10 12 C-10.23976563 12.55945313 -10.47953125 13.11890625 -10.7265625 13.6953125 C-12.27350358 16.49499114 -14.18802481 18.54271084 -16.375 20.875 C-22.43270273 27.18859189 -22.43270273 27.18859189 -25.625 35.125 C-25.24899331 38.31879587 -25.24899331 38.31879587 -22 40.375 C-21.01 40.91125 -20.02 41.4475 -19 42 C-19.66 42.99 -20.32 43.98 -21 45 C-26.86258862 43.32497468 -31.55475199 41.16787202 -35 36 C-34.90107258 30.05728835 -32.77174453 26.78906303 -28.875 22.5625 C-28.13382935 21.72162842 -28.13382935 21.72162842 -27.37768555 20.86376953 C-25.93276903 19.22891204 -24.4706587 17.61170192 -23 16 C-21.60045766 14.46169962 -20.20389329 12.9206751 -18.8125 11.375 C-17.98685547 10.48941406 -17.98685547 10.48941406 -17.14453125 9.5859375 C-15.70740059 7.92052157 -15.70740059 7.92052157 -16 5 C-16.66 4.67 -17.32 4.34 -18 4 C-17.67 3.01 -17.34 2.02 -17 1 C-15.14375 1.061875 -15.14375 1.061875 -13.25 1.125 C-8.08010096 1.15225782 -5.2064315 -1.44623097 0 0 Z " fill="#F2F6FB" transform="translate(1226,324)"/>
<path d="M0 0 C3.85103301 0.53675903 5.31797587 2.11600923 7.75 5.0625 C8.36359375 5.79597656 8.9771875 6.52945312 9.609375 7.28515625 C10.29773437 8.13400391 10.29773437 8.13400391 11 9 C9.6875 10.5 9.6875 10.5 8 12 C7.01 12 6.02 12 5 12 C5 12.66 5 13.32 5 14 C6.051875 14.103125 7.10375 14.20625 8.1875 14.3125 C11.97037413 14.99465763 14.08930322 15.51734686 17 18 C17.8125 21.1875 17.8125 21.1875 18 24 C13.375 27 13.375 27 10 27 C9.95875 25.9275 9.9175 24.855 9.875 23.75 C9.3341345 19.82849734 9.3341345 19.82849734 6.25 17.5 C2.48877309 15.76404912 1.84594362 15.79647105 -2 17 C-4.80231705 18.39859431 -7.49196403 19.96957241 -10.1875 21.5625 C-11.61626872 22.40093151 -13.0471626 23.23575534 -14.48046875 24.06640625 C-15.10848389 24.43709229 -15.73649902 24.80777832 -16.38354492 25.18969727 C-18 26 -18 26 -20 26 C-19.34 28.64 -18.68 31.28 -18 34 C-19.485 34.495 -19.485 34.495 -21 35 C-22.5333805 32.40251918 -24.05179668 29.79812104 -25.5625 27.1875 C-26.00013672 26.44951172 -26.43777344 25.71152344 -26.88867188 24.95117188 C-27.29794922 24.23896484 -27.70722656 23.52675781 -28.12890625 22.79296875 C-28.51119385 22.1383667 -28.89348145 21.48376465 -29.28735352 20.80932617 C-30 19 -30 19 -29 16 C-26 17 -26 17 -25 19 C-21.55735882 18.32201046 -18.8599077 16.96913507 -15.796875 15.27734375 C-14.8171875 14.73916016 -13.8375 14.20097656 -12.828125 13.64648438 C-11.81234375 13.08251953 -10.7965625 12.51855469 -9.75 11.9375 C-8.203125 11.08575195 -8.203125 11.08575195 -6.625 10.21679688 C-4.08104982 8.81526877 -1.53951717 7.4095398 1 6 C0.67 4.02 0.34 2.04 0 0 Z " fill="#F4F7FC" transform="translate(1284,415)"/>
<path d="M0 0 C0 4.95 0 9.9 0 15 C-5.32386523 17.66193262 -9.03186463 18.59681354 -15 18 C-17 17 -17 17 -18 15 C-18.39228223 11.91077743 -18.62737364 9.95164361 -18 7 C-13.1375867 1.54820327 -7.0815011 0 0 0 Z " fill="#084ABD" transform="translate(994,903)"/>
<path d="M0 0 C0 4.95 0 9.9 0 15 C-7.29230769 18.64615385 -7.29230769 18.64615385 -13 18 C-14.9375 16.9375 -14.9375 16.9375 -16 15 C-16.5625 11.625 -16.5625 11.625 -16 8 C-11.78350862 3.47498486 -6.35617061 0 0 0 Z " fill="#094ABD" transform="translate(992,268)"/>
<path d="M0 0 C3.54147126 1.91829693 4.67030815 3.10789264 6.0625 6.875 C5.97926084 11.0369581 4.72425414 12.9076034 2 16 C-2 16 -2 16 -4.03515625 14.42578125 C-10.82696177 7.34607646 -10.82696177 7.34607646 -13 3 C-9.29688025 -0.86412496 -5.01215039 -0.79515398 0 0 Z " fill="#094ABD" transform="translate(782,792)"/>
<path d="M0 0 C3.9375 0.4375 3.9375 0.4375 6.9375 2.4375 C4.9575 8.0475 2.9775 13.6575 0.9375 19.4375 C-4.0625 18.4375 -4.0625 18.4375 -6.375 15.8125 C-8.33092405 11.90065191 -8.69036731 9.75408774 -8.0625 5.4375 C-6.01294961 1.42379716 -4.41383368 0.13005771 0 0 Z " fill="#0447BC" transform="translate(1290.0625,677.5625)"/>
<path d="M0 0 C3.63657324 0.51039624 5.62123654 1.3608993 8.5625 3.5 C6.98741141 7.16379303 4.72056427 9.79851305 2.0625 12.75 C0.87140625 14.08804687 0.87140625 14.08804687 -0.34375 15.453125 C-2.4375 17.5 -2.4375 17.5 -4.4375 17.5 C-6.82580005 13.32047491 -8.15744413 10.33391061 -7.4375 5.5 C-5.34460255 1.64906869 -4.38606193 0.63797264 0 0 Z " fill="#094ABD" transform="translate(762.4375,355.5)"/>
<path d="M0 0 C3.71446592 0.32220408 6.41754716 0.61912174 9.63671875 2.58203125 C11.69254205 6.06799249 11.88493071 9.07136401 11.07421875 13.01953125 C8.56577262 16.51343835 7.33691583 16.95385698 3.07421875 18.01953125 C1.09421875 12.40953125 -0.88578125 6.79953125 -2.92578125 1.01953125 C-1.92578125 0.01953125 -1.92578125 0.01953125 0 0 Z " fill="#094ABD" transform="translate(1304.92578125,474.98046875)"/>
</svg>
